<?xml version="1.0" standalone="no"?>
<!DOCTYPE svg PUBLIC "-//W3C//DTD SVG 1.1//EN" "http://www.w3.org/Graphics/SVG/1.1/DTD/svg11.dtd" >
<svg xmlns="http://www.w3.org/2000/svg">
<metadata>Generated by IcoMoon</metadata>
<defs>
<font id="petal-icon" horiz-adv-x="1024">
<font-face units-per-em="1024" ascent="960" descent="-64" />
<missing-glyph horiz-adv-x="1024" />
<glyph unicode="&#x20;" horiz-adv-x="512" d="" />
<glyph unicode="&#xe900;" glyph-name="contacts" d="M512 853.333c123.712 0 224-100.288 224-224 0-120.619-95.336-218.971-214.767-223.813l-9.233-0.187c-35.569 0-69.866-5.44-102.107-15.534l-9.61-3.167c-6.918-2.395-13.736-5.007-20.444-7.826-1.616-0.679-3.21-1.364-4.797-2.060l4.797 2.060c-2.766-1.162-5.513-2.36-8.24-3.593l3.443 1.533c-3.134-1.375-6.244-2.795-9.328-4.26l5.885 2.727c-3.824-1.728-7.61-3.524-11.357-5.387l5.472 2.66c-2.91-1.382-5.797-2.804-8.66-4.266l3.188 1.606c-3.749-1.864-7.459-3.795-11.129-5.791l7.941 4.185c-2.773-1.415-5.524-2.867-8.252-4.355-5.498-2.991-11.206-6.316-16.806-9.798-2.134-1.327-4.24-2.67-6.331-4.034-4.895-3.195-9.719-6.524-14.452-9.972-1.165-0.849-2.351-1.724-3.531-2.608l3.531 2.608c-3.024-2.203-6.010-4.455-8.958-6.754l5.426 4.146c-2.632-1.97-5.235-3.977-7.808-6.020l2.381 1.874c-2.645-2.063-5.258-4.163-7.839-6.301l5.458 4.427c-3.135-2.49-6.225-5.034-9.269-7.63l3.811 3.203c-2.717-2.25-5.399-4.542-8.044-6.874l4.233 3.671c-2.64-2.252-5.245-4.543-7.815-6.873l3.582 3.202c-2.73-2.407-5.422-4.857-8.073-7.349l4.492 4.146c-2.229-2.021-4.431-4.071-6.605-6.15l2.114 2.003c-5.76-5.413-11.331-11.023-16.704-16.82-4.269-4.606-8.428-9.348-12.456-14.204-0.777-0.937-1.561-1.893-2.34-2.853l2.34 2.853c-1.913-2.307-3.797-4.64-5.65-6.998l3.31 4.145c-1.927-2.375-3.823-4.777-5.687-7.205l2.377 3.060c-2.198-2.797-4.354-5.629-6.466-8.495l4.088 5.435c-2.519-3.28-4.979-6.607-7.38-9.98l3.291 4.545c-2.159-2.93-4.272-5.896-6.338-8.896l3.047 4.351c-1.94-2.725-3.841-5.48-5.702-8.264l2.655 3.912c-2.045-2.97-4.045-5.974-5.997-9.010l3.343 5.098c-2.129-3.184-4.205-6.407-6.229-9.665l2.886 4.567c-1.785-2.776-3.531-5.58-5.237-8.41l2.351 3.843c-6.427-10.352-12.316-21.074-17.627-32.125-0.723-1.506-1.425-2.993-2.116-4.486l2.116 4.486c-1.54-3.205-3.032-6.438-4.474-9.698l2.359 5.212c-1.318-2.848-2.598-5.718-3.839-8.608l1.48 3.396c-1.621-3.663-3.179-7.36-4.673-11.089l3.192 7.693c-1.412-3.288-2.774-6.603-4.085-9.944l0.892 2.251c-1.22-3.045-2.398-6.112-3.532-9.2l2.639 6.95c-1.524-3.883-2.978-7.801-4.362-11.752l1.723 4.802c-0.775-2.111-1.531-4.232-2.265-6.363l0.542 1.56c-5.096-14.548-9.234-29.546-12.34-44.918-0.467-2.311-0.907-4.615-1.325-6.926l1.325 6.926c-0.742-3.675-1.426-7.371-2.049-11.087l0.725 4.162c-0.666-3.689-1.273-7.4-1.819-11.129l1.095 6.968c-0.683-4.070-1.293-8.164-1.83-12.281l0.736 5.314c-0.495-3.38-0.941-6.777-1.336-10.188l0.6 4.875c-0.442-3.385-0.834-6.786-1.175-10.202l0.575 5.327c-0.495-4.268-0.91-8.559-1.246-12.874l0.671 7.547c-0.755-7.549-1.265-15.171-1.52-22.857-0.125-3.744-0.189-7.524-0.191-11.317l0.191 11.317c-0.127-3.828-0.191-7.673-0.191-11.532 0-17.673-14.327-32-32-32s-32 14.327-32 32c0 8.459 0.259 16.858 0.77 25.189 0.134 2.182 0.283 4.33 0.448 6.473 0.138 1.782 0.288 3.575 0.45 5.364 0.179 1.978 0.373 3.954 0.58 5.924 0.239 2.265 0.496 4.528 0.772 6.785 0.189 1.544 0.387 3.093 0.595 4.64 1.61 12.008 3.743 23.835 6.377 35.472l0.241 1.060c1.246 5.436 2.601 10.83 4.062 16.181 0.729 2.67 1.486 5.331 2.269 7.981 0.241 0.817 0.488 1.643 0.738 2.468 0.837 2.765 1.699 5.508 2.589 8.239 0.524 1.607 1.065 3.23 1.615 4.848 0.665 1.956 1.346 3.907 2.041 5.852 0.619 1.732 1.248 3.454 1.889 5.171 2.661 7.133 5.52 14.181 8.569 21.126l0.171 0.388c3.938 8.945 8.19 17.721 12.742 26.314 1.098 2.073 2.216 4.139 3.351 6.194 0.604 1.094 1.217 2.191 1.834 3.285 0.995 1.762 2 3.513 3.018 5.255 1.113 1.905 2.245 3.806 3.393 5.698 0.766 1.263 1.536 2.518 2.314 3.768 2.003 3.223 4.057 6.425 6.153 9.596 3.28 4.96 6.66 9.836 10.144 14.634 0.875 1.205 1.755 2.403 2.642 3.597 3.891 5.236 7.899 10.368 12.025 15.398 0.909 1.108 1.83 2.219 2.757 3.325 1.633 1.948 3.285 3.882 4.955 5.801 0.991 1.139 1.979 2.261 2.973 3.377 2.167 2.435 4.372 4.852 6.605 7.243 0.258 0.277 0.538 0.575 0.818 0.873 7.906 8.412 16.15 16.471 24.725 24.17 2.087 1.874 4.204 3.736 6.341 5.576 0.795 0.685 1.578 1.354 2.364 2.020 2.134 1.81 4.291 3.601 6.466 5.369 1.093 0.889 2.184 1.766 3.279 2.638 1.153 0.918 2.305 1.825 3.462 2.725 2.513 1.957 5.058 3.891 7.627 5.795 0.638 0.473 1.264 0.935 1.892 1.394 2.11 1.546 4.242 3.076 6.389 4.586 1.122 0.789 2.239 1.566 3.36 2.337 3.212 2.211 6.473 4.387 9.766 6.516 1.676 1.084 3.36 2.154 5.051 3.213 1.638 1.025 3.278 2.035 4.925 3.033 0.893 0.541 1.786 1.078 2.681 1.61 2.676 1.594 5.38 3.162 8.103 4.699 0.61 0.344 1.206 0.679 1.803 1.012 2.761 1.54 5.553 3.056 8.365 4.538 1.184 0.624 2.379 1.247 3.577 1.864 1.96 1.009 3.92 1.998 5.89 2.971 1.080 0.534 2.156 1.060 3.235 1.581 14.565 7.038 29.615 13.23 45.087 18.513-56.321 40.667-92.955 106.881-92.955 181.651 0 123.712 100.288 224 224 224zM688.137 429.111c135.632-65.485 229.197-204.371 229.197-365.111 0-17.673-14.327-32-32-32s-32 14.327-32 32c0 149.609-96.253 276.737-230.211 322.837 23.758 10.92 45.635 25.213 65.014 42.274zM512 789.333c-88.366 0-160-71.634-160-160s71.634-160 160-160c88.366 0 160 71.634 160 160s-71.634 160-160 160z" />
<glyph unicode="&#xe901;" glyph-name="reset" d="M70.764 287.675c0 0 0 0 0 0-18.181 50.025-28.097 104.017-28.097 160.325h121.681c11.782 0 21.333-9.551 21.333-21.333 0-3.971-1.108-7.863-3.2-11.238l-81.136-130.918c-4.971-8.021-15.502-10.493-23.523-5.522-3.261 2.021-5.747 5.081-7.057 8.687zM50.189 363.884c-4.992 27.575-7.522 55.692-7.522 84.116 0 259.206 210.128 469.333 469.333 469.333 33.388 0 66.346-3.492 98.486-10.357 214.862-45.897 370.847-236.497 370.847-458.976 0-259.206-210.128-469.333-469.333-469.333-46.581 0-92.287 6.797-136.042 20.028-64.578 19.529-124.003 52.818-174.428 97.329-13.25 11.696-14.509 31.918-2.814 45.167s31.918 14.509 45.167 2.814c43.565-38.455 94.874-67.198 150.6-84.050 37.764-11.42 77.228-17.289 117.516-17.289 223.859 0 405.333 181.474 405.333 405.333 0 192.133-134.735 356.767-320.216 396.388-27.753 5.928-56.229 8.945-85.117 8.945-223.859 0-405.333-181.474-405.333-405.333 0-24.596 2.187-48.898 6.499-72.715 3.148-17.39-8.397-34.040-25.788-37.189s-34.040 8.397-37.189 25.788z" />
<glyph unicode="&#xe902;" glyph-name="refresh" d="M953.236 287.675c0 0 0 0 0 0 18.181 50.025 28.097 104.017 28.097 160.325h-121.681c-11.782 0-21.333-9.551-21.333-21.333 0-3.971 1.108-7.863 3.2-11.238l81.136-130.918c4.971-8.021 15.502-10.493 23.523-5.522 3.261 2.021 5.747 5.081 7.057 8.687zM973.811 363.884c4.992 27.575 7.522 55.692 7.522 84.116 0 259.206-210.128 469.333-469.333 469.333-33.388 0-66.346-3.492-98.486-10.357-214.862-45.897-370.847-236.497-370.847-458.976 0-259.206 210.128-469.333 469.333-469.333 46.581 0 92.287 6.797 136.042 20.028 64.578 19.529 124.003 52.818 174.428 97.329 13.25 11.696 14.509 31.918 2.814 45.167s-31.918 14.509-45.167 2.814c-43.565-38.455-94.874-67.198-150.6-84.050-37.764-11.42-77.228-17.289-117.516-17.289-223.859 0-405.333 181.474-405.333 405.333 0 192.133 134.735 356.767 320.216 396.388 27.753 5.928 56.229 8.945 85.117 8.945 223.859 0 405.333-181.474 405.333-405.333 0-24.596-2.187-48.898-6.499-72.715-3.148-17.39 8.397-34.040 25.788-37.189s34.040 8.397 37.189 25.788z" />
<glyph unicode="&#xe903;" glyph-name="download" d="M906.667 298.667c17.042 0 30.972-13.322 31.946-30.12l0.054-1.88v-74.667c0-93.134-74.602-168.845-167.308-170.634l-3.359-0.032h-512c-93.134 0-168.845 74.602-170.634 167.308l-0.032 78.025c0 17.673 14.327 32 32 32 17.042 0 30.972-13.322 31.946-30.12l0.054-1.88v-74.667c0-57.912 46.151-105.045 103.681-106.626l2.986-0.041h512c57.912 0 105.045 46.151 106.626 103.681l0.041 2.986v74.667c0 17.673 14.327 32 32 32zM511.932 874.667c17.673 0 32-14.327 32-32l-0.018-541.44 169.458 169.401c12.497 12.497 32.758 12.497 45.255 0 12.050-12.050 12.481-31.321 1.291-43.887l-1.291-1.368-193.83-193.83c-28.552-28.552-74.473-29.146-103.749-1.784l-1.846 1.784-193.83 193.83c-12.497 12.497-12.497 32.758 0 45.255 12.050 12.050 31.321 12.481 43.887 1.291l1.368-1.291 169.287-169.273 0.018 541.312c0 17.673 14.327 32 32 32z" />
<glyph unicode="&#xe904;" glyph-name="backtotop" d="M461.048 694.587c29.275 27.362 75.197 26.767 103.749-1.784v0l301.788-301.865c11.19-12.566 10.759-31.836-1.291-43.887-12.497-12.497-32.758-12.497-45.255 0v0l-276.039 275.964v-527.317c0-17.673-14.327-32-32-32s-32 14.327-32 32v0 527.36l-277.407-277.298c-12.566-11.19-31.836-10.759-43.887 1.291-12.497 12.497-12.497 32.758 0 45.255v0l300.497 300.497zM853.333 832c17.673 0 32-14.327 32-32s-14.327-32-32-32h-682.667c-17.673 0-32 14.327-32 32s14.327 32 32 32h682.667z" />
<glyph unicode="&#xe905;" glyph-name="arrow-right-filled" d="M446.17 176.471c-7.776-7.776-17.806-11.923-27.987-12.441l-2.183-0.056c-10.919 0-21.839 4.166-30.17 12.497-16.157 16.157-16.647 42.050-1.469 58.797l1.469 1.543 188.562 188.562c12.050 12.050 12.481 31.321 1.291 43.887l-1.291 1.368-188.562 188.562c-16.662 16.662-16.662 43.677 0 60.34 8.357 8.357 19.319 12.523 30.273 12.497l2.19-0.061c9.482-0.507 18.827-4.163 26.335-10.967l1.543-1.469 203.647-203.647c36.821-36.821 37.478-96.111 1.973-133.734l-1.973-2.030-203.647-203.647z" />
<glyph unicode="&#xe906;" glyph-name="arrow-left-filled" d="M605.098 176.471c7.776-7.776 17.806-11.923 27.987-12.441l2.183-0.056c10.919 0 21.839 4.166 30.17 12.497 16.157 16.157 16.647 42.050 1.469 58.797l-1.469 1.543-188.562 188.562c-12.050 12.050-12.481 31.321-1.291 43.887l1.291 1.368 188.562 188.562c16.662 16.662 16.662 43.677 0 60.34-8.357 8.357-19.319 12.523-30.273 12.497l-2.19-0.061c-9.482-0.507-18.827-4.163-26.335-10.967l-1.543-1.469-203.647-203.647c-36.821-36.821-37.478-96.111-1.973-133.734l1.973-2.030 203.647-203.647z" />
<glyph unicode="&#xe907;" glyph-name="list-filled" d="M160 224c29.455 0 53.333-23.878 53.333-53.333s-23.878-53.333-53.333-53.333c-29.455 0-53.333 23.878-53.333 53.333s23.878 53.333 53.333 53.333zM896 213.333c23.564 0 42.667-19.103 42.667-42.667s-19.103-42.667-42.667-42.667h-554.667c-23.564 0-42.667 19.103-42.667 42.667s19.103 42.667 42.667 42.667h554.667zM160 501.333c29.455 0 53.333-23.878 53.333-53.333s-23.878-53.333-53.333-53.333c-29.455 0-53.333 23.878-53.333 53.333s23.878 53.333 53.333 53.333zM896 490.667c23.564 0 42.667-19.103 42.667-42.667s-19.103-42.667-42.667-42.667h-554.667c-23.564 0-42.667 19.103-42.667 42.667s19.103 42.667 42.667 42.667h554.667zM160 778.667c29.455 0 53.333-23.878 53.333-53.333s-23.878-53.333-53.333-53.333c-29.455 0-53.333 23.878-53.333 53.333s23.878 53.333 53.333 53.333zM896 768c23.564 0 42.667-19.103 42.667-42.667s-19.103-42.667-42.667-42.667h-554.667c-23.564 0-42.667 19.103-42.667 42.667s19.103 42.667 42.667 42.667h554.667z" />
<glyph unicode="&#xe908;" glyph-name="share-filled" d="M522.667 874.667c70.692 0 128-57.308 128-128s-57.308-128-128-128c-7.545 0-14.937 0.653-22.123 1.905l-239.491-359.271c13.42-13.383 23.885-29.728 30.332-47.971h441.231c17.571 49.717 64.984 85.337 120.718 85.337 70.692 0 128-57.308 128-128s-57.308-128-128-128c-55.718 0-103.12 35.6-120.703 85.295h-441.261c-17.583-49.695-64.985-85.295-120.703-85.295-70.692 0-128 57.308-128 128s57.308 128 128 128c4.145 0 8.243-0.197 12.287-0.582l243.113 364.601c-19.558 22.478-31.4 51.846-31.4 83.981 0 70.692 57.308 128 128 128z" />
<glyph unicode="&#xe909;" glyph-name="ok-filled" d="M91.138 439.163c-16.662 16.662-16.662 43.677 0 60.34 16.157 16.157 42.050 16.647 58.797 1.469l1.543-1.469 217.668-217.605 2.955-2.459c7.867-5.298 18.483-4.784 25.817 1.542l1.167 1.084 441.438 441.438c16.662 16.662 43.677 16.662 60.34 0 16.157-16.157 16.647-42.050 1.469-58.797l-1.469-1.543-456.523-456.523c-32.696-32.696-85.323-33.313-118.771-1.851l-1.908 1.851-232.523 232.523z" />
<glyph unicode="&#xe90a;" glyph-name="search" d="M744.758 255.139l143.275-143.25c12.497-12.497 12.497-32.758 0-45.255s-32.758-12.497-45.255 0l-143.686 143.691c16.388 13.702 31.662 28.692 45.666 44.814zM442.667 874.667c197.35 0 357.333-159.984 357.333-357.333 0-88.502-32.174-169.489-85.464-231.903v0l-0.944-1.101c-2.851-3.312-5.762-6.571-8.731-9.776l9.674 10.877c-3.963-4.641-8.042-9.179-12.233-13.61-2.5-2.643-5.032-5.239-7.602-7.796-0.895-0.89-1.782-1.764-2.674-2.633-2.996-2.92-6.063-5.806-9.18-8.637-1.208-1.097-2.431-2.193-3.663-3.282-2.857-2.525-5.744-4.995-8.67-7.419-0.589-0.488-1.169-0.965-1.75-1.441-61.596-50.386-140.317-80.613-226.098-80.613-197.35 0-357.333 159.984-357.333 357.333s159.984 357.333 357.333 357.333zM442.667 810.667c-162.004 0-293.333-131.33-293.333-293.333s131.33-293.333 293.333-293.333c162.004 0 293.333 131.33 293.333 293.333s-131.33 293.333-293.333 293.333z" />
<glyph unicode="&#xe90b;" glyph-name="scan" d="M256 501.333h512c23.564 0 42.667-19.103 42.667-42.667s-19.103-42.667-42.667-42.667h-512c-23.564 0-42.667 19.103-42.667 42.667s19.103 42.667 42.667 42.667zM896 384c21.881 0 39.915-16.471 42.38-37.691l0.287-4.976v-138.667c0-91.4-71.849-166.019-162.149-170.458l-8.518-0.209h-138.667c-23.564 0-42.667 19.103-42.667 42.667 0 21.881 16.471 39.915 37.691 42.38l4.976 0.287h138.667c44.986 0 81.842 34.811 85.099 78.965l0.234 6.369v138.667c0 23.564 19.103 42.667 42.667 42.667zM128 384c21.881 0 39.915-16.471 42.38-37.691l0.287-4.976v-138.667c0-44.986 34.811-81.842 78.965-85.099l6.369-0.234h138.667c23.564 0 42.667-19.103 42.667-42.667 0-21.881-16.471-39.915-37.691-42.38l-4.976-0.287h-138.667c-91.4 0-166.019 71.849-170.458 162.149l-0.209 8.518v138.667c0 23.564 19.103 42.667 42.667 42.667zM768 885.333c91.4 0 166.019-71.849 170.458-162.149l0.209-8.518v-138.667c0-23.564-19.103-42.667-42.667-42.667-21.881 0-39.915 16.471-42.38 37.691l-0.287 4.976v138.667c0 44.986-34.811 81.842-78.965 85.099l-6.369 0.234h-138.667c-23.564 0-42.667 19.103-42.667 42.667 0 21.881 16.471 39.915 37.691 42.38l4.976 0.287h138.667zM394.667 885.333c23.564 0 42.667-19.103 42.667-42.667 0-21.881-16.471-39.915-37.691-42.38l-4.976-0.287h-138.667c-44.986 0-81.842-34.811-85.099-78.965l-0.234-6.369v-138.667c0-23.564-19.103-42.667-42.667-42.667-21.881 0-39.915 16.471-42.38 37.691l-0.287 4.976v138.667c0 91.4 71.849 166.019 162.149 170.458l8.518 0.209h138.667z" />
<glyph unicode="&#xe90c;" glyph-name="edit" d="M719.882 874.667c42.665 0 70.080-2.491 90.836-7.303l-57.227-57.285c-7.41 0.31-15.664 0.491-24.943 0.559l-437.431-0.041c-49.834-0.577-68.832-4.753-88.292-15.161-16.659-8.909-29.351-21.601-38.26-38.26-11.268-21.069-15.231-41.595-15.231-101.293l0.007-420.168 0.063-8.596c0.577-49.834 4.753-68.832 15.161-88.292 8.909-16.659 21.601-29.351 38.26-38.26 20.015-10.704 39.541-14.817 92.627-15.201l424.43-0.030c59.699 0 80.225 3.964 101.293 15.231 16.659 8.909 29.351 21.601 38.26 38.26 10.704 20.015 14.817 39.541 15.201 92.627l0.030 8.666v415.764c0 12.869-0.184 23.917-0.586 33.543l57.287 57.272c4.809-20.754 7.299-48.164 7.299-90.816v-415.764l-0.043-9.452c-0.629-67.44-8.165-94.199-21.812-120.248l-0.94-1.775c-14.166-26.488-34.638-47.547-60.581-62.342l-3.932-2.172c-27.812-14.874-55.399-22.795-131.476-22.795l-425.216 0.043c-67.44 0.629-94.199 8.165-120.248 21.812l-1.775 0.94c-26.488 14.166-47.547 34.638-62.342 60.581l-2.172 3.932c-14.874 27.812-22.795 55.399-22.795 131.476v415.764c0 74.458 7.588 102.467 21.855 129.7l0.94 1.775c14.166 26.488 34.638 47.547 60.581 62.342l3.932 2.172c27.812 14.874 55.399 22.795 131.476 22.795h415.764zM948.483 884.483c16.662-16.662 16.662-43.677 0-60.34l-407.294-407.294c-16.662-16.662-43.677-16.662-60.34 0s-16.662 43.677 0 60.34l407.294 407.294c16.662 16.662 43.677 16.662 60.34 0z" />
<glyph unicode="&#xe90d;" glyph-name="delete" d="M240.171 640l46.811-468.219c4.813-48.132 44.629-85.006 92.687-86.406l2.836-0.041h258.955c48.382 0 89.041 35.964 95.204 83.657l0.323 2.819 39.223 393.407 7.534 74.784h64.341l-8.196-81.179-39.218-393.361c-8.040-80.644-75.038-142.342-155.695-144.089l-3.515-0.038h-258.955c-81.026 0-149.058 60.52-158.818 140.586l-0.388 3.493-47.47 474.587h64.341zM437.333 458.667c17.673 0 32-14.327 32-32v-256c0-17.673-14.327-32-32-32s-32 14.327-32 32v256c0 17.673 14.327 32 32 32zM586.667 458.667c17.673 0 32-14.327 32-32v-256c0-17.673-14.327-32-32-32s-32 14.327-32 32v256c0 17.673 14.327 32 32 32zM512 885.333c75.489 0 136.89-60.322 138.629-135.394l0.038-3.273h245.333c17.673 0 32-14.327 32-32 0-17.042-13.322-30.972-30.12-31.946l-1.88-0.054h-277.333c-17.042 0-30.972 13.322-31.946 30.12l-0.054 1.88v32c0 41.237-33.429 74.667-74.667 74.667-40.378 0-73.27-32.051-74.623-72.1l-0.043-2.567v-32c0-17.042-13.322-30.972-30.12-31.946l-1.88-0.054h-288c-17.673 0-32 14.327-32 32 0 17.042 13.322 30.972 30.12 31.946l1.88 0.054h256c0 76.583 62.083 138.667 138.667 138.667z" />
<glyph unicode="&#xe90e;" glyph-name="gallery-move-out" d="M469.266 448c17.673 0 32-14.327 32-32l-0.018-338.773 84.125 84.067c12.497 12.497 32.758 12.497 45.255 0 12.050-12.050 12.481-31.321 1.291-43.887l-1.291-1.368-108.497-108.497c-28.552-28.552-74.473-29.146-103.749-1.784l-1.846 1.784-108.497 108.497c-12.497 12.497-12.497 32.758 0 45.255 12.050 12.050 31.321 12.481 43.887 1.291l1.368-1.291 83.954-83.939 0.018 338.645c0 17.673 14.327 32 32 32zM683.23 743.784l9.017-0.046 8.492-0.138 7.993-0.229 7.52-0.32 7.072-0.41 6.65-0.5c13.969-1.181 25.148-2.99 34.713-5.403l4.305-1.157c0.7-0.2 1.391-0.403 2.074-0.61l4.009-1.285 3.845-1.369 3.706-1.453 3.592-1.536c0.591-0.263 1.178-0.529 1.762-0.799l3.471-1.661 1.715-0.861 3.407-1.784c0.566-0.304 1.132-0.612 1.698-0.922 24.336-13.367 43.435-32.982 56.45-57.975l1.776-3.491c0.289-0.583 0.576-1.167 0.858-1.753l1.657-3.536 0.798-1.79 1.536-3.641 0.738-1.858 1.415-3.806 1.333-3.949 1.251-4.118 0.594-2.131 1.126-4.421c2.169-9.068 3.837-19.548 4.985-32.391l0.531-6.623 0.443-7.043c0.067-1.21 0.13-2.439 0.189-3.687l0.312-7.723 0.223-8.209 0.134-8.722 0.045-9.261v-307.896l-0.045-9.261-0.134-8.722-0.223-8.209-0.312-7.723-0.4-7.263-0.487-6.829c-1.15-14.347-2.911-25.827-5.261-35.651l-1.126-4.421-0.594-2.131-1.251-4.118-1.333-3.949-1.415-3.806-1.496-3.689c-0.256-0.607-0.516-1.21-0.778-1.809l-1.617-3.565c-0.276-0.589-0.556-1.176-0.839-1.762l-1.737-3.499c-0.296-0.582-0.595-1.163-0.898-1.744-13.015-24.994-32.114-44.609-56.45-57.975l-3.399-1.824-0.852-0.443-4.297-2.14c-0.578-0.277-1.159-0.55-1.743-0.82l-3.545-1.578c-0.599-0.256-1.201-0.509-1.809-0.758l-3.706-1.453-3.845-1.369-4.009-1.285-2.074-0.61-4.305-1.157c-8.83-2.228-19.034-3.941-31.539-5.12l-6.448-0.545-6.858-0.455-3.59-0.194-7.52-0.32-7.993-0.229-8.492-0.138-9.017-0.046h-65.502l65.749 65.749 3.926-0.012 7.889 0.063 7.307 0.129 6.761 0.197 6.25 0.268 5.775 0.343 5.336 0.42 4.933 0.5c0.791 0.090 1.566 0.184 2.326 0.281l4.395 0.625 4.081 0.712 3.803 0.802c3.676 0.848 6.987 1.835 10.096 2.974l3.047 1.19 2.947 1.294 2.883 1.401 2.855 1.511c13.183 7.241 23.146 17.473 30.196 31.012l1.471 2.932 1.364 2.961 1.26 3.027 1.159 3.129c1.109 3.193 2.070 6.594 2.895 10.369l0.781 3.906 0.693 4.191 0.608 4.514c0.095 0.781 0.186 1.577 0.273 2.389l0.487 5.066 0.409 5.481 0.334 5.931 0.261 6.419 0.192 6.943 0.125 7.504 0.061 8.102v316.469l-0.061 8.102-0.125 7.504-0.192 6.943-0.261 6.419-0.334 5.931-0.409 5.481-0.487 5.066c-0.088 0.812-0.179 1.608-0.273 2.389l-0.608 4.514-0.693 4.191-0.781 3.906c-0.825 3.775-1.786 7.176-2.895 10.369l-1.159 3.129-1.26 3.027-1.364 2.961-1.471 2.932c-7.050 13.539-17.013 23.771-30.196 31.012l-2.855 1.511-2.883 1.401-2.947 1.294-3.047 1.19c-3.109 1.139-6.421 2.126-10.096 2.974l-3.803 0.802-4.081 0.712-4.395 0.625-2.326 0.281-4.933 0.5-5.336 0.42-5.775 0.343-6.25 0.268-6.761 0.197-7.307 0.129-7.889 0.063-483.257-0.542-6.128-0.323-5.649-0.404c-0.904-0.074-1.789-0.152-2.657-0.233l-5.003-0.53c-1.602-0.191-3.14-0.397-4.621-0.619l-4.279-0.71-3.975-0.805-3.71-0.902-3.484-1.003c-2.256-0.703-4.388-1.476-6.447-2.321l-3.040-1.324-2.97-1.438-2.939-1.554c-13.183-7.241-23.146-17.473-30.196-31.012l-1.471-2.932-1.364-2.961-1.26-3.027-1.159-3.129c-1.109-3.193-2.070-6.594-2.895-10.369l-0.781-3.906-0.693-4.191-0.608-4.514c-0.095-0.781-0.186-1.577-0.273-2.389l-0.487-5.066-0.409-5.481-0.334-5.931-0.261-6.419-0.192-6.943-0.125-7.504-0.061-8.102v-316.469l0.061-8.102 0.125-7.504 0.192-6.943 0.261-6.419 0.334-5.931 0.409-5.481 0.487-5.066c0.088-0.812 0.179-1.608 0.273-2.389l0.608-4.514 0.693-4.191 0.781-3.906c0.825-3.775 1.786-7.176 2.895-10.369l1.159-3.129 1.26-3.027 1.364-2.961 1.471-2.932c7.050-13.539 17.013-23.771 30.196-31.012l2.855-1.511 2.883-1.401 2.947-1.294 3.047-1.19c3.109-1.139 6.42-2.126 10.096-2.974l3.803-0.802 4.081-0.712 4.395-0.625c0.761-0.097 1.536-0.191 2.326-0.281l4.933-0.5 5.336-0.42 5.775-0.343 6.25-0.268 6.761-0.197 7.307-0.129 7.889-0.063 25.217 0.012 65.749-65.749-95.81 0.046-8.492 0.138-7.993 0.229-7.52 0.32-7.072 0.41-6.65 0.5c-13.969 1.181-25.148 2.99-34.713 5.403l-4.305 1.157-2.074 0.61-4.009 1.285-3.845 1.369-3.706 1.453-3.592 1.536c-0.591 0.263-1.178 0.529-1.762 0.799l-3.471 1.661-1.715 0.861-3.407 1.784-1.698 0.922c-24.336 13.367-43.435 32.982-56.45 57.975l-1.776 3.491c-0.289 0.583-0.576 1.167-0.858 1.753l-1.657 3.536-0.798 1.79-1.536 3.641-0.738 1.858-1.415 3.806-1.333 3.949-1.251 4.118-0.594 2.131-1.126 4.421c-2.169 9.068-3.837 19.548-4.985 32.391l-0.531 6.623-0.443 7.043c-0.067 1.21-0.13 2.439-0.189 3.687l-0.312 7.723-0.223 8.209-0.134 8.722-0.045 9.261 0.011 312.595 0.090 8.988 0.078 4.295 0.223 8.209 0.312 7.723 0.4 7.263 0.487 6.829c1.15 14.347 2.911 25.827 5.261 35.651l1.126 4.421 0.594 2.131 1.251 4.118 1.333 3.949 1.415 3.806 1.496 3.689c0.256 0.607 0.516 1.21 0.778 1.809l1.617 3.565 0.417 0.882 2.159 4.379c0.296 0.582 0.595 1.163 0.898 1.744 13.015 24.994 32.114 44.609 56.45 57.975l3.399 1.824 5.15 2.583c0.578 0.277 1.159 0.55 1.743 0.82l3.545 1.578c0.599 0.256 1.201 0.509 1.809 0.758l3.706 1.453 3.845 1.369 4.009 1.285c0.683 0.207 1.375 0.41 2.074 0.61l4.305 1.157c8.83 2.228 19.034 3.941 31.539 5.12l6.448 0.545 6.858 0.455c1.178 0.068 2.375 0.133 3.59 0.194l7.52 0.32 7.993 0.229 8.492 0.138 9.017 0.046h449.126zM713.073 853.323l10.077-0.083 9.606-0.167 9.154-0.249 8.72-0.332 8.305-0.414 7.908-0.495 7.53-0.577 7.17-0.657 6.829-0.738 6.506-0.818c2.117-0.286 4.184-0.585 6.202-0.898l5.917-0.977 2.857-0.518 5.524-1.095c0.9-0.189 1.79-0.381 2.671-0.577l5.172-1.213c0.844-0.209 1.679-0.421 2.506-0.636l4.863-1.329 2.361-0.694 4.595-1.445 4.439-1.522 4.302-1.598 4.184-1.674c0.688-0.285 1.373-0.574 2.053-0.865l4.041-1.787 3.969-1.862 3.916-1.937 7.746-4.096c34.765-19.095 62.050-47.117 80.642-82.822l2.030-3.969 1.958-3.986 1.886-4.022 1.813-4.076 1.74-4.15 1.667-4.243c0.815-2.148 1.602-4.338 2.362-6.581l1.482-4.559 1.407-4.719 1.332-4.897c0.431-1.664 0.85-3.362 1.257-5.095l1.181-5.312c0.19-0.904 0.378-1.819 0.562-2.743l1.067-5.673c0.171-0.967 0.34-1.945 0.505-2.935l0.951-6.077c0.152-1.037 0.301-2.086 0.447-3.147l0.835-6.524c0.133-1.114 0.262-2.241 0.389-3.381l0.718-7.014 0.64-7.364 0.561-7.733 0.482-8.122 0.403-8.529 0.323-8.956 0.243-9.401 0.162-9.866 0.081-10.35 0.010-200.909-0.043-9.708-0.129-9.19-0.214-8.695-0.298-8.223-0.383-7.775-0.467-7.349-0.55-6.947c-0.197-2.251-0.408-4.439-0.633-6.568l-0.715-6.212-0.797-5.879c-0.838-5.72-1.799-10.976-2.88-15.871l-1.121-4.779-0.59-2.307-1.241-4.462-1.32-4.279-1.398-4.12-1.477-3.983-0.767-1.948-1.593-3.822-1.67-3.744-1.747-3.689-1.823-3.656-0.94-1.823c-10.479-20.123-24.408-37.195-41.449-50.869 0.078 3.092 0.139 6.288 0.181 9.578l0.064 10.596v364.070l-0.064 10.596-0.004 1.155-0.122 9.058-0.187 8.571-0.253 8.108-0.322 7.669-0.187 3.677-0.429 7.054c-0.078 1.143-0.158 2.271-0.242 3.383l-0.541 6.493-0.618 6.148-0.698 5.827-0.779 5.529-0.863 5.255-0.948 5.004-1.036 4.778c-0.18 0.779-0.364 1.549-0.552 2.311l-1.172 4.482c-0.203 0.732-0.41 1.458-0.621 2.176l-1.313 4.239c-0.68 2.084-1.397 4.119-2.151 6.117l-1.558 3.952-1.66 3.878c-0.285 0.642-0.575 1.281-0.869 1.919l-1.816 3.812-1.924 3.798c-12.628 24.25-30.776 42.889-54.389 55.859l-3.698 1.976-3.712 1.866-3.749 1.758c-0.629 0.284-1.261 0.564-1.896 0.839l-3.848 1.6c-1.946 0.774-3.927 1.51-5.956 2.209l-4.127 1.348c-0.7 0.217-1.406 0.429-2.119 0.638l-4.364 1.204c-0.742 0.193-1.492 0.382-2.25 0.567l-4.652 1.064-4.873 0.974-5.117 0.886-5.384 0.8-5.673 0.716-5.986 0.635-6.322 0.556-6.681 0.478c-1.145 0.073-2.305 0.144-3.482 0.211l-7.262 0.367-7.678 0.295-8.117 0.226-8.58 0.159-5.648 0.059c-1.651 0.022-3.327 0.038-5.028 0.049l-509.059 0.016c-6.959 0-13.507-0.083-19.697-0.258 12.468 16.325 27.759 29.865 45.652 40.345l5.708 3.196 3.56 1.872 3.592 1.794 3.645 1.715 3.722 1.636 1.897 0.788 3.879 1.516 4.011 1.436 4.167 1.355 4.344 1.274 2.246 0.606 4.653 1.151c4.766 1.11 9.884 2.097 15.454 2.958l5.724 0.819 6.048 0.735 3.153 0.336 6.577 0.607 6.957 0.522 3.628 0.229 7.57 0.393 8.007 0.307 8.466 0.22 8.948 0.132 9.452 0.044 344.955-0.010z" />
<glyph unicode="&#xe90f;" glyph-name="select-checkbox" d="M768 874.667c94.257 0 170.667-76.41 170.667-170.667v-512c0-94.257-76.41-170.667-170.667-170.667h-512c-94.257 0-170.667 76.41-170.667 170.667v512c0 94.257 76.41 170.667 170.667 170.667h512zM768 810.667h-512c-56.554 0-102.828-44.012-106.44-99.653l-0.227-7.013v-512c0-56.554 44.012-102.828 99.653-106.44l7.013-0.227h512c56.554 0 102.828 44.012 106.44 99.653l0.227 7.013v512c0 56.554-44.012 102.828-99.653 106.44l-7.013 0.227zM747.961 598.627c11.361-11.361 12.393-29.138 3.098-41.666l-3.098-3.589-247.163-247.163c-27.444-27.444-70.936-29.058-100.268-4.843l-5.326 4.843-97.83 97.83c-12.497 12.497-12.497 32.758 0 45.255 11.361 11.361 29.138 12.393 41.666 3.098l3.589-3.098 97.83-97.83c3.471-3.471 8.74-4.050 12.81-1.736l2.275 1.736 247.163 247.163c12.497 12.497 32.758 12.497 45.255 0z" />
<glyph unicode="&#xe910;" glyph-name="originality" d="M618.667 42.667c17.673 0 32-14.327 32-32 0-16.2-12.039-29.589-27.658-31.708l-4.342-0.292h-213.333c-17.673 0-32 14.327-32 32 0 16.2 12.039 29.589 27.658 31.708l4.342 0.292h213.333zM661.333 149.333c17.673 0 32-14.327 32-32 0-16.2-12.039-29.589-27.658-31.708l-4.342-0.292h-298.667c-17.673 0-32 14.327-32 32 0 16.2 12.039 29.589 27.658 31.708l4.342 0.292h298.667zM278.183 681.817c129.133 129.133 338.5 129.133 467.633 0s129.133-338.5 0-467.633c-6.001-6.001-14.14-9.373-22.627-9.373v0h-422.378c-8.487 0-16.626 3.371-22.627 9.373-129.133 129.133-129.133 338.5 0 467.633zM700.562 636.562c-104.14 104.14-272.984 104.14-377.124 0-99.511-99.511-103.934-258.103-13.268-362.866v0l4.368-4.875h394.864l4.428 4.875c88.557 102.327 86.397 256.008-6.48 355.829v0zM981.333 480c17.673 0 32-14.327 32-32 0-16.2-12.039-29.589-27.658-31.708l-4.342-0.292h-42.667c-17.673 0-32 14.327-32 32 0 16.2 12.039 29.589 27.658 31.708l4.342 0.292h42.667zM85.333 480c17.673 0 32-14.327 32-32 0-16.2-12.039-29.589-27.658-31.708l-4.342-0.292h-42.667c-17.673 0-32 14.327-32 32 0 16.2 12.039 29.589 27.658 31.708l4.342 0.292h42.667zM866.496 802.496c11.455-11.455 12.41-29.435 2.864-41.978l-2.864-3.277-30.17-30.17c-12.497-12.497-32.758-12.497-45.255 0-11.455 11.455-12.41 29.435-2.864 41.978l2.864 3.277 30.17 30.17c12.497 12.497 32.758 12.497 45.255 0zM199.482 805.36l3.277-2.864 30.17-30.17c12.497-12.497 12.497-32.758 0-45.255-11.455-11.455-29.435-12.41-41.978-2.864l-3.277 2.864-30.17 30.17c-12.497 12.497-12.497 32.758 0 45.255 11.455 11.455 29.435 12.41 41.978 2.864zM512 949.333c16.2 0 29.589-12.039 31.708-27.658l0.292-4.342v-42.667c0-17.673-14.327-32-32-32-16.2 0-29.589 12.039-31.708 27.658l-0.292 4.342v42.667c0 17.673 14.327 32 32 32z" />
<glyph unicode="&#xe911;" glyph-name="collage" d="M341.333 448c70.692 0 128-57.308 128-128v-170.667c0-70.692-57.308-128-128-128h-128c-70.692 0-128 57.308-128 128v170.667c0 70.692 57.308 128 128 128h128zM810.667 874.667c70.692 0 128-57.308 128-128v-597.333c0-70.692-57.308-128-128-128h-128c-70.692 0-128 57.308-128 128v597.333c0 70.692 57.308 128 128 128h128zM341.333 384h-128c-33.267 0-60.606-25.382-63.707-57.836l-0.293-6.164v-170.667c0-33.267 25.382-60.606 57.836-63.707l6.164-0.293h128c33.267 0 60.606 25.382 63.707 57.836l0.293 6.164v170.667c0 33.267-25.382 60.606-57.836 63.707l-6.164 0.293zM810.667 810.667h-128c-33.267 0-60.606-25.382-63.707-57.836l-0.293-6.164v-597.333c0-33.267 25.382-60.606 57.836-63.707l6.164-0.293h128c33.267 0 60.606 25.382 63.707 57.836l0.293 6.164v597.333c0 33.267-25.382 60.606-57.836 63.707l-6.164 0.293zM341.333 874.667c70.692 0 128-57.308 128-128v-85.333c0-70.692-57.308-128-128-128h-128c-70.692 0-128 57.308-128 128v85.333c0 70.692 57.308 128 128 128h128zM341.333 810.667h-128c-33.267 0-60.606-25.382-63.707-57.836l-0.293-6.164v-85.333c0-33.267 25.382-60.606 57.836-63.707l6.164-0.293h128c33.267 0 60.606 25.382 63.707 57.836l0.293 6.164v85.333c0 33.267-25.382 60.606-57.836 63.707l-6.164 0.293z" />
<glyph unicode="&#xe912;" glyph-name="timer" d="M512 917.333c259.206 0 469.333-210.128 469.333-469.333s-210.128-469.333-469.333-469.333c-259.206 0-469.333 210.128-469.333 469.333 0 125.604 49.608 243.441 136.378 330.778 12.456 12.537 32.717 12.604 45.255 0.148s12.604-32.717 0.148-45.255c-74.975-75.466-117.78-177.143-117.78-285.671 0-223.859 181.474-405.333 405.333-405.333s405.333 181.474 405.333 405.333c0 213.089-164.432 387.774-373.333 404.089v-135.086c0-17.673-14.327-32-32-32s-32 14.327-32 32v168.331c0 17.673 14.327 32 32 32zM320 661.333c3.927 0 7.607-1.061 10.767-2.913l2.654-1.85c0.284-0.22 0.443-0.355 0.6-0.491l208.149-177.909c15.38-15.38 16.563-39.583 3.549-56.32l-3.549-4.019c-15.38-15.38-39.583-16.563-56.32-3.549l-4.019 3.549-0.992 1.044-1.23 1.353c-0.526 0.612-1.031 1.235-1.517 1.869l-173.928 203.61c-3.416 3.783-5.496 8.795-5.496 14.293 0 11.782 9.551 21.333 21.333 21.333z" />
<glyph unicode="&#xe913;" glyph-name="backspace" d="M821.333 746.667c68.168 0 123.89-53.287 127.783-120.479l0.22-7.507v-341.333c0-70.69-57.307-127.998-127.998-127.998l-2.167 0.113 0.034-0.113-518.8 0.394c-29.782 2.029-58.989 14.427-81.755 37.192l-170.536 170.536c-49.987 49.987-49.987 131.032 0 181.019l170.63 170.63c22.505 22.505 51.305 34.878 80.732 37.119l8.833 0.428h513.024zM309.333 682.709l0.036-0.111c-14.374 0.029-28.756-4.755-40.522-14.352l-4.861-4.393-170.608-170.608c-23.431-23.431-24.896-60.511-4.393-85.649l4.393-4.861 170.535-170.535c3.94-3.94 8.266-7.259 12.856-9.956 2.374-1.395 4.819-2.625 7.318-3.688 6.666-2.878 13.756-4.615 21.19-5.084l0.409 0.077 3.654-0.094 0.025-0.111h511.973c35.346 0 63.999 28.656 63.999 64.001v341.335c0 33.252-25.381 60.593-57.834 63.695l-7.194 0.293-510.977 0.041zM640.427 418.133l64.867-64.839c12.497-12.497 12.497-32.758 0-45.255-11.361-11.361-29.138-12.393-41.666-3.098l-3.589 3.098-64.839 64.825 45.227 45.269zM705.294 587.961c11.262-11.262 12.375-28.829 3.339-41.337l-234.768-234.726-2.469-2.955c-0.066-0.096-0.132-0.192-0.196-0.288l-0.573-0.615c-12.497-12.497-32.758-12.497-45.255 0-11.361 11.361-12.393 29.138-3.098 41.666l3.098 3.589 94.691 94.706-94.691 94.706c-12.497 12.497-12.497 32.758 0 45.255 10.098 10.098 25.267 12.036 37.312 5.814l4.354-2.716 3.589-3.098 94.706-94.691 94.706 94.691c12.497 12.497 32.758 12.497 45.255 0z" />
<glyph unicode="&#xe914;" glyph-name="home" d="M245.333 21.333c-63.773 0-115.663 50.877-117.294 114.257l0.002 304.078c0.311 0.222 0.618 0.454 0.92 0.696l1.388 1.211 61.648 58.564 0.002-361.472c0-28.68 22.638-52.073 51.020-53.284l2.313-0.049 106.665 0.007 0.002 181.327c0 85.515 67.087 155.361 151.503 159.778l8.497 0.222c88.366 0 160-71.634 160-160v0l-0.002-181.327 106.668-0.007c28.68 0 52.073 22.638 53.284 51.020l0.049 2.313-0.002 361.472 59.976-56.939 1.388-1.211c0.84-0.671 1.718-1.27 2.625-1.796l0.013-301.527c0-63.773-50.877-115.663-114.257-117.294l-3.076-0.040h-533.333zM512 362.667c-53.019 0-96-42.981-96-96v0-181.333h192v181.333c0 50.81-39.474 92.401-89.427 95.779v0zM408.088 851.79c61.885 52.93 154.414 51.040 214.11-5.671v0l338.507-321.581 2.947-3.202c9.865-12.294 9.371-30.292-1.787-42.037-12.172-12.813-32.427-13.332-45.24-1.16v0l-343.456 325.973c-37.119 30.742-91.849 29.278-127.291-4.392v0l-338.507-321.581-3.349-2.779c-12.783-9.222-30.733-7.806-41.891 3.939-12.172 12.813-11.653 33.068 1.16 45.24v0l338.507 321.581z" />
<glyph unicode="&#xe915;" glyph-name="discover" d="M220.381 850.082c2.779-15.96-6.784-31.216-21.808-35.983l-4.228-1.033c-26.573-4.628-42.685-19.749-47.662-46.622l-0.028-0.717c-0.55-3.156-0.967-6.408-1.254-9.752-1.094-13.953 0.332-30.561 4.3-49.924 15.527-75.76 69.702-175.678 153.607-278.66 46.284-56.807 97.525-109.458 149.93-155.683l22.52-19.411c43.706-36.803 87.84-68.958 130.235-95.168 60.63-37.351 117.007-61.906 164.063-71.55 14.148-2.9 26.826-4.442 38.083-4.653 7.654-0.031 14.905 0.539 21.709 1.724l1.619 0.107c26.238 5.193 41.035 21.231 45.604 47.467 3.032 17.411 19.604 29.068 37.016 26.036s29.068-19.604 26.036-37.016c-9.726-55.851-44.898-89.101-96.37-98.928-0.932-0.321-1.919-0.541-2.925-0.717-19.095-3.325-40.214-3.292-62.916-0.201-6.77 0.878-13.669 2.043-20.705 3.485-27.281 5.591-56.658 15.196-87.525 28.505-48.797-19.385-101.994-30.054-157.683-30.054-235.641 0-426.667 191.025-426.667 426.667 0 55.711 10.677 108.927 30.097 157.716l-3.518 8.531c-6.758 16.337-12.425 32.209-16.982 47.55-12.782 42.805-17.077 81.885-11.325 114.91 0.284 1.63 0.687 3.21 1.197 4.732 10.207 50.562 43.335 85.061 98.563 94.679 17.411 3.032 33.984-8.624 37.016-26.036zM157.31 523.968c-5.238-24.583-7.977-49.956-7.977-75.968 0-200.295 162.371-362.667 362.667-362.667 26.011 0 51.382 2.738 75.841 7.942-15.768 9.332-31.761 19.401-47.912 30.224-52.421 35.054-105.692 77.463-156.998 125.34-93.159 86.658-171.931 183.593-225.621 275.129zM512 874.667c235.641 0 426.667-191.025 426.667-426.667 0-128.975-57.227-244.585-147.674-322.821-3.882 0.573-8.017 1.304-12.369 2.196-19.041 3.902-40.233 10.753-63.039 20.373 95.996 65.29 159.083 175.404 159.083 300.253 0 200.295-162.371 362.667-362.667 362.667-124.83 0-234.931-63.068-300.175-159.079-9.538 22.662-16.392 43.831-20.326 63.027-0.911 4.445-1.652 8.652-2.229 12.617 78.29 90.279 193.835 147.435 322.73 147.435z" />
<glyph unicode="&#xe916;" glyph-name="company" d="M597.333 149.333c0-55.718-35.6-103.12-85.295-120.703v0l-7.209-2.311c-2.375-0.684-4.778-1.301-7.207-1.849l3.238 0.775c-2.337-0.592-4.699-1.119-7.085-1.581l3.846 0.805c-3.019-0.681-6.078-1.255-9.173-1.719l5.327 0.913c-2.602-0.503-5.232-0.927-7.888-1.27l2.561 0.357c-2.678-0.401-5.383-0.719-8.112-0.951l5.552 0.594c-2.749-0.355-5.525-0.623-8.326-0.8l-0.019-0.001-8.211-0.259h-256c-70.692 0-128 57.308-128 128v597.333c0 70.692 57.308 128 128 128h256c70.692 0 128-57.308 128-128v-597.333zM640 697.984l196.914-63.673c35.221-11.386 59.086-44.18 59.086-81.196v-446.448c0-47.128-38.205-85.333-85.333-85.333l-228.448-0.002c19.707 17.393 35.366 39.265 45.384 64.024l172.397-0.022c16.2 0 29.589 12.039 31.708 27.658l0.292 4.342v420.721c0 16.87-9.913 31.982-24.995 38.837l-4.675 1.802-162.33 51.919v67.371zM469.333 810.667h-256c-33.267 0-60.606-25.382-63.707-57.836l-0.293-6.164v-597.333c0-33.267 25.382-60.606 57.836-63.707l6.164-0.293h256c33.267 0 60.606 25.382 63.707 57.836l0.293 6.164v597.333c0 35.346-28.654 64-64 64zM640 256h138.667c17.673 0 32-14.327 32-32s-14.327-32-32-32h-138.667v64zM437.333 341.333c17.673 0 32-14.327 32-32s-14.327-32-32-32h-192c-17.673 0-32 14.327-32 32s14.327 32 32 32h192zM640 405.333h138.667c17.673 0 32-14.327 32-32s-14.327-32-32-32h-138.667v64zM437.333 490.667c17.673 0 32-14.327 32-32s-14.327-32-32-32h-192c-17.673 0-32 14.327-32 32s14.327 32 32 32h192zM437.333 640c17.673 0 32-14.327 32-32s-14.327-32-32-32h-192c-17.673 0-32 14.327-32 32s14.327 32 32 32h192z" />
<glyph unicode="&#xe917;" glyph-name="phone" d="M220.468 867.97c-25.062-5.74-49.091-22.091-72.928-48.012l-2.473-2.743 0.728 0.747c-46.815-46.435-66.32-113.631-51.576-177.785 26.985-116.155 115.37-254.738 234.562-375.148 120.638-119.42 259.222-207.805 375.302-234.772l3.936-0.861c61.713-12.82 125.711 5.756 171.054 49.588l2.125 2.117-0.695-0.648c29.078 25.893 46.902 51.97 52.135 79.311 7.75 40.485-7.933 82.102-40.168 108.037l-86.453 70.077c-39.169 34.769-98.041 34.022-136.18-1.483l-2.202-2.117-1.062-1.074-39.943-42.34c-5.634-5.633-15.299-6.745-22.779-2.072-35.648 22.159-86.289 65.394-135.36 115.328l-9.35 9.284c-46.299 46.45-85.594 93.044-106.332 126.406-4.712 7.542-3.599 17.207 2.669 23.457l41.704 39.327 1.074 1.062 1.728 1.792c35.228 37.835 36.601 95.247 3.859 134.291l-4.749 5.61-48.066 59.258c-6.652 8.241-13.237 16.411-19.25 23.884-25.935 32.235-67.551 47.919-108.037 40.168l-3.275-0.688zM869.78 171.796c-2.163-11.301-12.331-26.177-31.839-43.548l-1.439-1.363c-30.856-31.109-75.451-44.053-118.011-34.272-102.84 23.892-231.76 106.114-344.457 217.67-111.327 112.468-193.551 241.389-217.459 344.303-9.485 41.273 2.459 84.534 31.667 115.259l3.985 4.117c17.371 19.508 32.247 29.675 43.548 31.839 17.031 3.26 34.917-3.48 46.139-17.429l60.425-74.707 13.155-15.887c11.316-14.238 10.611-34.801-1.965-48.311l-0.826-0.848-41.779-39.414c-28.022-27.924-32.917-70.454-12.431-103.243 25.198-40.536 71.498-94.768 124.745-147.094l10.076-10.144c48.798-48.597 98.708-90.639 136.687-114.247l2.354-1.417c32.39-18.784 73.554-13.483 100.211 13.251l40.011 42.404 1.278 1.225c13.114 12.202 33.663 12.892 47.999 1.489l7.87-6.586c14.799-12.176 51.706-42.029 82.627-66.906 13.949-11.223 20.689-29.108 17.429-46.139z" />
<glyph unicode="&#xe918;" glyph-name="comments" d="M661.333 832c176.731 0 320-143.269 320-320 0-174.964-140.418-317.131-314.708-319.957l-5.292-0.043h-72.085l-161.287-161.294c-11.997-11.997-31.15-12.477-43.719-1.44l-1.536 1.44c-11.997 11.997-12.477 31.15-1.44 43.719l1.44 1.536 170.667 170.667c5.501 5.501 12.799 8.792 20.514 9.303l2.113 0.070h85.333c141.385 0 256 114.615 256 256 0 139.971-112.334 253.705-251.767 255.966l-302.9 0.034c-141.385 0-256-114.615-256-256 0-139.971 112.334-253.705 251.767-255.966l4.233-0.034h32c17.673 0 32-14.327 32-32 0-17.042-13.322-30.972-30.12-31.946l-1.88-0.054h-32c-176.731 0-320 143.269-320 320 0 174.964 140.418 317.131 314.708 319.957l5.292 0.043h298.667zM298.667 565.333c29.455 0 53.333-23.878 53.333-53.333s-23.878-53.333-53.333-53.333c-29.455 0-53.333 23.878-53.333 53.333s23.878 53.333 53.333 53.333zM512 565.333c29.455 0 53.333-23.878 53.333-53.333s-23.878-53.333-53.333-53.333c-29.455 0-53.333 23.878-53.333 53.333s23.878 53.333 53.333 53.333zM725.333 565.333c29.455 0 53.333-23.878 53.333-53.333s-23.878-53.333-53.333-53.333c-29.455 0-53.333 23.878-53.333 53.333s23.878 53.333 53.333 53.333z" />
<glyph unicode="&#xe919;" glyph-name="privacy-statement" d="M456.157 904.488l-274.039-132.868c-33.099-16.048-54.118-49.598-54.118-86.382v-205.238c0-224.734 143.168-420.786 352.085-492.731 0.531-0.183 1.409-0.47 2.633-0.862v0c19.033-6.095 39.493-6.097 58.527-0.008 1.311 0.42 2.242 0.724 2.793 0.914 208.855 71.989 351.962 268.009 351.962 492.688v205.238c0 36.784-21.019 70.334-54.118 86.382l-274.039 132.868c-35.265 17.098-76.421 17.098-111.686 0zM539.922 846.899l274.039-132.868c11.033-5.349 18.039-16.533 18.039-28.794v-205.238l-0.039-6.013c-2.525-194.715-127.542-363.905-309.231-426.324l-0.255-0.087-0.35-0.117c-6.648-2.219-13.841-2.194-20.474 0.072-0.074 0.025-0.146 0.050-0.217 0.074-183.642 63.004-309.434 235.085-309.434 432.394v205.238c0 12.261 7.006 23.445 18.039 28.794l274.039 132.868c17.633 8.549 38.21 8.549 55.843 0zM512 522.667c-17.673 0-32-14.327-32-32v0-256l0.292-4.342c2.119-15.619 15.508-27.658 31.708-27.658 17.673 0 32 14.327 32 32v0 256l-0.292 4.342c-2.119 15.619-15.508 27.658-31.708 27.658zM512 704c-29.455 0-53.333-23.878-53.333-53.333s23.878-53.333 53.333-53.333c29.455 0 53.333 23.878 53.333 53.333s-23.878 53.333-53.333 53.333z" />
<glyph unicode="&#xe91a;" glyph-name="detail" d="M512 917.333c259.206 0 469.333-210.128 469.333-469.333s-210.128-469.333-469.333-469.333c-259.206 0-469.333 210.128-469.333 469.333s210.128 469.333 469.333 469.333zM512 853.333c-223.859 0-405.333-181.474-405.333-405.333s181.474-405.333 405.333-405.333c223.859 0 405.333 181.474 405.333 405.333s-181.474 405.333-405.333 405.333zM512 544c17.673 0 32-14.327 32-32v-288c0-17.673-14.327-32-32-32s-32 14.327-32 32v288c0 17.673 14.327 32 32 32zM512 704c29.455 0 53.333-23.878 53.333-53.333s-23.878-53.333-53.333-53.333c-29.455 0-53.333 23.878-53.333 53.333s23.878 53.333 53.333 53.333z" />
<glyph unicode="&#xe91b;" glyph-name="help" d="M512 917.333c259.206 0 469.333-210.128 469.333-469.333s-210.128-469.333-469.333-469.333c-259.206 0-469.333 210.128-469.333 469.333s210.128 469.333 469.333 469.333zM512 853.333c-223.859 0-405.333-181.474-405.333-405.333s181.474-405.333 405.333-405.333c223.859 0 405.333 181.474 405.333 405.333s-181.474 405.333-405.333 405.333zM512 277.333c23.563 0 42.667-19.104 42.667-42.667s-19.104-42.667-42.667-42.667c-23.563 0-42.667 19.104-42.667 42.667s19.104 42.667 42.667 42.667zM541.565 701.169c58.517-11.228 105.47-57.582 116.877-115.589 13.821-70.249-23.324-137.759-87.11-165.117-16.434-7.047-27.325-24.416-27.325-43.789v-24.675c0-17.673-14.327-32-32-32s-32 14.327-32 32v24.675c0 44.419 25.599 85.241 66.1 102.608 36.46 15.638 57.442 53.772 49.539 93.946-6.352 32.302-33.148 58.756-66.132 65.085-54.288 10.402-102.846-29.545-102.846-82.152 0-17.673-14.327-32-32-32s-32 14.327-32 32c0 92.854 85.213 162.958 178.898 145.007z" />
<glyph unicode="&#xe91c;" glyph-name="fail" d="M512 917.334l7.746-0.063c251.817-4.083 454.94-206.273 461.427-457.26l0.16-12.382-0.061-7.375c-4.083-251.816-206.273-454.939-457.261-461.426l-12.382-0.16-7.375 0.061c-251.817 4.083-454.94 206.273-461.427 457.26l-0.16 12.382 0.061 7.375c4.083 251.816 206.273 454.941 456.907 461.428l12.365 0.16zM511.744 853.376l-11.352-0.205c-212.095-5.971-383.916-175.032-393.315-386.386l-0.351-11.57-0.059-6.844c0-217.717 171.304-395.72 386.546-405.293l11.572-0.351 6.844-0.059c217.717 0 395.721 171.303 405.294 386.546l0.351 11.572 0.059 6.844c0 217.717-171.304 395.72-386.534 405.293l-11.571 0.351-7.484 0.103zM512 298.667c29.453 0 53.333-23.88 53.333-53.333s-23.88-53.333-53.333-53.333c-29.453 0-53.333 23.88-53.333 53.333s23.88 53.333 53.333 53.333zM512 704c27.369 0 49.556-22.187 49.556-49.556 0-1.213-0.045-2.425-0.133-3.634l-20.8-282.882c-1.102-14.993-13.588-26.595-28.622-26.595s-27.52 11.602-28.622 26.595l-20.8 282.882c-2.007 27.295 18.493 51.049 45.788 53.056 1.209 0.089 2.421 0.133 3.634 0.133z" />
<glyph unicode="&#xe91d;" glyph-name="forbid" d="M512 917.333c259.206 0 469.333-210.128 469.333-469.333 0-124.347-48.358-237.4-127.294-321.378l-10.725-11.044c-84.889-84.608-201.994-136.912-331.315-136.912-259.206 0-469.333 210.128-469.333 469.333 0 124.347 48.358 237.4 127.294 321.378l10.725 11.044c84.889 84.608 201.994 136.912 331.315 136.912zM106.667 448c0-223.859 181.474-405.333 405.333-405.333 100.412 0 192.296 36.512 263.1 96.984l-571.45 571.45c-60.472-70.804-96.984-162.688-96.984-263.1zM512 853.333c-100.412 0-192.296-36.512-263.1-96.984l571.45-571.45c60.472 70.804 96.984 162.688 96.984 263.1 0 223.859-181.474 405.333-405.333 405.333z" />
<glyph unicode="&#xe91e;" glyph-name="contacts_card" d="M832 832c94.257 0 170.667-76.41 170.667-170.667v-426.667c0-94.257-76.41-170.667-170.667-170.667h-640c-94.257 0-170.667 76.41-170.667 170.667v426.667c0 94.257 76.41 170.667 170.667 170.667h640zM832 768h-640c-56.554 0-102.828-44.012-106.44-99.653l-0.227-7.013v-426.667c0-56.554 44.012-102.828 99.653-106.44l7.013-0.227h640c56.554 0 102.828 44.012 106.44 99.653l0.227 7.013v426.667c0 58.91-47.756 106.667-106.667 106.667zM812.364 422.483c44.567-37.121 72.928-93.074 72.928-155.65 0-17.673-14.327-32-32-32s-32 14.327-32 32c0 47.68-24.065 89.74-60.711 114.696 19.83 10.178 37.41 24.154 51.783 40.955zM682.67 661.333c70.691 0 127.996-57.307 127.996-128 0-67.41-52.105-122.647-118.237-127.633-0.288 0.020-0.573-0.001-0.858-0.020-2.942-0.244-5.91-0.346-8.901-0.346l-2.82 0.085-5.094-0.139c-72.923-4.079-130.798-64.504-130.798-138.447 0-17.673-14.327-32-32-32s-32 14.327-32 32c0 78.052 44.122 145.798 108.786 179.658-21.164 22.743-34.078 53.285-34.078 86.843 0 70.693 57.305 128 128.004 128zM394.667 309.333c17.673 0 32-14.327 32-32s-14.327-32-32-32h-192c-17.673 0-32 14.327-32 32s14.327 32 32 32h192zM394.667 480c17.673 0 32-14.327 32-32s-14.327-32-32-32h-192c-17.673 0-32 14.327-32 32s14.327 32 32 32h192zM682.669 597.333c-35.343 0-64.003-28.646-64.003-64 0-34.551 27.372-62.695 61.604-63.956l2.354 0.122 2.175-0.080 4.032 0.208c32.449 3.101 57.835 30.433 57.835 63.707 0 35.353-28.659 64-63.997 64zM394.667 650.667c17.673 0 32-14.327 32-32s-14.327-32-32-32h-192c-17.673 0-32 14.327-32 32s14.327 32 32 32h192z" />
<glyph unicode="&#xe91f;" glyph-name="addcontact" d="M512 853.333c123.712 0 224-100.288 224-224 0-120.619-95.336-218.971-214.767-223.813l-9.233-0.187c-188.513 0-341.333-152.82-341.333-341.333 0-17.673-14.327-32-32-32s-32 14.327-32 32c0 178.001 114.738 329.203 274.289 383.682-56.321 40.667-92.955 106.881-92.955 181.651 0 123.712 100.288 224 224 224zM744.96 437.333c17.673 0 32-14.327 32-32v-320c0-17.673-14.327-32-32-32s-32 14.327-32 32v126.379l-126.293-0.063c-17.673 0-32 14.327-32 32s14.327 32 32 32l126.293 0.020v129.664c0 17.673 14.327 32 32 32zM906.667 275.649c17.673 0 32-14.327 32-32s-14.327-32-32-32l-89.301 0.043v63.957h89.301zM512 789.333c-88.366 0-160-71.634-160-160s71.634-160 160-160c88.366 0 160 71.634 160 160s-71.634 160-160 160z" />
<glyph unicode="&#xe920;" glyph-name="rotate" d="M102.294 677.114l4.455 7.779 10.96 17.784 7.553 11.307 11.34 15.753 5.362 6.996c10.279 13.155 21.244 25.747 32.842 37.724l5.866 5.811c2.242 2.151 4.77 4.515 7.586 7.094 3.934 3.603 9.075 5.602 14.409 5.602 10.473 0 19.184-7.547 20.99-17.499l0.344-3.835v-163.63c-0.010-10.469-7.552-19.178-17.5-20.995l-3.833-0.349-71.69-0.031c-15.933-43.804-24.31-90.565-24.31-138.625 0-223.859 181.474-405.333 405.333-405.333 29.418 0 58.409 3.129 86.642 9.274 17.269 3.759 34.315-7.193 38.074-24.462s-7.193-34.315-24.462-38.074c-32.698-7.117-66.253-10.738-100.254-10.738-259.206 0-469.333 210.128-469.333 469.333 0 47.687 7.14 94.304 20.813 138.615 2.61 8.48 5.472 16.886 8.562 25.182l3.416 8.889 4.187 10.224 6.045 13.662 8.51 17.459 8.095 15.084zM512 917.333c259.206 0 469.333-210.128 469.333-469.333 0-47.687-7.14-94.304-20.813-138.615-1.81-5.887-3.749-11.753-5.8-17.566l-4.507-12.222-4.761-11.895-6.103-14.007-6.262-13.202-10.074-19.259-5.763-10.127-9.003-14.737-11.358-17.018-9.492-13.089-5.362-6.996c-10.279-13.155-21.244-25.747-32.842-37.724l-5.866-5.811c-2.242-2.151-4.77-4.515-7.585-7.094-3.934-3.603-9.075-5.602-14.409-5.602-10.473 0-19.184 7.547-20.99 17.499l-0.344 3.835v163.63c0.010 10.469 7.552 19.178 17.5 20.995l3.833 0.349 71.69 0.031c15.933 43.804 24.31 90.565 24.31 138.625 0 223.859-181.474 405.333-405.333 405.333-29.418 0-58.409-3.129-86.642-9.274-17.269-3.759-34.315 7.193-38.074 24.462s7.193 34.315 24.462 38.074c32.698 7.117 66.253 10.738 100.254 10.738z" />
<glyph unicode="&#xe921;" glyph-name="add" d="M544 53.333c0-17.673-14.327-32-32-32s-32 14.327-32 32v362.667h-362.667c-17.673 0-32 14.327-32 32s14.327 32 32 32h362.667v362.667c0 17.673 14.327 32 32 32s32-14.327 32-32v-789.333zM906.667 480c17.673 0 32-14.327 32-32s-14.327-32-32-32h-320v64h320z" />
<glyph unicode="&#xe922;" glyph-name="add-filled" d="M512 874.667c23.564 0 42.667-19.103 42.667-42.667v-768c0-23.564-19.103-42.667-42.667-42.667s-42.667 19.103-42.667 42.667v341.333h-341.333c-23.564 0-42.667 19.103-42.667 42.667s19.103 42.667 42.667 42.667h341.333v341.333c0 23.564 19.103 42.667 42.667 42.667zM896 490.667c23.564 0 42.667-19.103 42.667-42.667s-19.103-42.667-42.667-42.667h-298.709v85.333h298.709z" />
<glyph unicode="&#xe923;" glyph-name="add-norm" d="M512 917.333c259.206 0 469.333-210.128 469.333-469.333s-210.128-469.333-469.333-469.333c-259.206 0-469.333 210.128-469.333 469.333s210.128 469.333 469.333 469.333zM512 853.333c-223.859 0-405.333-181.474-405.333-405.333s181.474-405.333 405.333-405.333c223.859 0 405.333 181.474 405.333 405.333s-181.474 405.333-405.333 405.333zM544 224c0-17.673-14.327-32-32-32s-32 14.327-32 32v192.043l-192-0.043c-17.673 0-32 14.327-32 32s14.327 32 32 32l192 0.043v191.957c0 17.673 14.327 32 32 32s32-14.327 32-32v-448zM736 480c17.673 0 32-14.327 32-32s-14.327-32-32-32h-149.333v64h149.333z" />
<glyph unicode="&#xe924;" glyph-name="add-norm-filled" d="M512 917.333c259.206 0 469.333-210.128 469.333-469.333s-210.128-469.333-469.333-469.333c-259.206 0-469.333 210.128-469.333 469.333s210.128 469.333 469.333 469.333zM544 672c0 17.673-14.327 32-32 32s-32-14.327-32-32v0-191.957l-192-0.043c-16.2 0-29.589-12.039-31.708-27.658l-0.292-4.342c0-17.673 14.327-32 32-32v0l192 0.043v-192.043c0-16.2 12.039-29.589 27.658-31.708l4.342-0.292c17.673 0 32 14.327 32 32v0zM736 480h-149.333v-64h149.333c17.673 0 32 14.327 32 32s-14.327 32-32 32v0z" />
<glyph unicode="&#xe925;" glyph-name="arrow-right" d="M437.259 713.278l1.368-1.291 211.189-211.189c28.552-28.552 29.146-74.473 1.784-103.749l-1.784-1.846-211.189-211.189c-5.499-5.499-12.5-8.578-19.683-9.238l-1.962-0.12h-1.965c-7.859 0.24-15.646 3.359-21.645 9.358-12.050 12.050-12.481 31.321-1.291 43.887l1.291 1.368 196.104 196.104c12.050 12.050 12.481 31.321 1.291 43.887l-1.291 1.368-196.104 196.104c-12.497 12.497-12.497 32.758 0 45.255 6.025 6.025 13.855 9.145 21.75 9.361l1.974-0.007c7.236-0.247 14.403-2.934 20.163-8.063z" />
<glyph unicode="&#xe926;" glyph-name="arrow-left" d="M618.427 713.278l-1.368-1.291-211.189-211.189c-28.552-28.552-29.146-74.473-1.784-103.749l1.784-1.846 211.189-211.189c5.499-5.499 12.5-8.578 19.683-9.238l1.962-0.12h1.965c7.859 0.24 15.646 3.359 21.645 9.358 12.050 12.050 12.481 31.321 1.291 43.887l-1.291 1.368-196.104 196.104c-12.050 12.050-12.481 31.321-1.291 43.887l1.291 1.368 196.104 196.104c12.497 12.497 12.497 32.758 0 45.255-6.025 6.025-13.855 9.145-21.75 9.361l-1.974-0.007c-7.236-0.247-14.403-2.934-20.163-8.063z" />
<glyph unicode="&#xe927;" glyph-name="list" d="M149.333 213.333c23.564 0 42.667-19.103 42.667-42.667s-19.103-42.667-42.667-42.667c-23.564 0-42.667 19.103-42.667 42.667s19.103 42.667 42.667 42.667zM906.667 202.667c17.673 0 32-14.327 32-32s-14.327-32-32-32h-576c-17.673 0-32 14.327-32 32s14.327 32 32 32h576zM149.333 490.667c23.564 0 42.667-19.103 42.667-42.667s-19.103-42.667-42.667-42.667c-23.564 0-42.667 19.103-42.667 42.667s19.103 42.667 42.667 42.667zM906.667 480c17.673 0 32-14.327 32-32s-14.327-32-32-32h-576c-17.673 0-32 14.327-32 32s14.327 32 32 32h576zM149.333 768c23.564 0 42.667-19.103 42.667-42.667s-19.103-42.667-42.667-42.667c-23.564 0-42.667 19.103-42.667 42.667s19.103 42.667 42.667 42.667zM906.667 757.333c17.673 0 32-14.327 32-32s-14.327-32-32-32h-576c-17.673 0-32 14.327-32 32s14.327 32 32 32h576z" />
<glyph unicode="&#xe928;" glyph-name="share" d="M522.667 874.667c70.692 0 128-57.308 128-128s-57.308-128-128-128c-11.5 0-22.645 1.517-33.248 4.36l-236.307-354.444c20.019-16.874 34.792-39.775 41.52-65.906h434.737c14.213 55.202 64.326 95.989 123.965 95.989 70.692 0 128-57.308 128-128s-57.308-128-128-128c-59.624 0-109.726 40.766-123.954 95.947h-434.759c-14.228-55.18-64.33-95.947-123.954-95.947-70.692 0-128 57.308-128 128s57.308 128 128 128c8.209 0 16.238-0.773 24.017-2.25l238.89 358.344c-23.995 23.265-38.907 55.844-38.907 91.905 0 70.692 57.308 128 128 128zM170.667 234.667c-35.346 0-64-28.654-64-64s28.654-64 64-64c35.346 0 64 28.654 64 64s-28.654 64-64 64zM853.333 234.667c-35.346 0-64-28.654-64-64s28.654-64 64-64c35.346 0 64 28.654 64 64s-28.654 64-64 64zM522.667 810.667c-35.346 0-64-28.654-64-64s28.654-64 64-64c35.346 0 64 28.654 64 64s-28.654 64-64 64z" />
<glyph unicode="&#xe929;" glyph-name="ok" d="M490.131 214.183c-28.552-28.552-74.473-29.146-103.749-1.784l-1.846 1.784-243.189 243.189c-12.497 12.497-12.497 32.758 0 45.255 12.050 12.050 31.321 12.481 43.887 1.291l1.368-1.291 228.104-228.104c12.050-12.050 31.321-12.481 43.887-1.291l1.368 1.291 441.438 441.438c12.497 12.497 32.758 12.497 45.255 0 12.050-12.050 12.481-31.321 1.291-43.887l-1.291-1.368-456.523-456.523z" />
<glyph unicode="&#xe92a;" glyph-name="contacts-filled" d="M130.44 190.815c27.804 56.499 100.048 225.185 381.56 225.185s354.986-168.686 381.56-225.185c10.074-21.418 16.981-50.074 20.723-85.966 4.887-46.874-29.151-88.835-76.025-93.722-2.939-0.306-5.893-0.46-8.848-0.46h-635.423c-47.129-0.001-85.334 38.205-85.334 85.333 0 2.894 0.147 5.786 0.441 8.665 3.672 35.979 10.788 64.695 21.346 86.15zM512 864c-111.93 0-202.667-90.737-202.667-202.667s90.737-202.667 202.667-202.667c111.93 0 202.667 90.737 202.667 202.667s-90.737 202.667-202.667 202.667z" />
<glyph unicode="&#xe92b;" glyph-name="contacts-group" d="M469.333 853.333c123.712 0 224-100.288 224-224 0-75.295-37.151-141.914-94.122-182.525 148.15-53.219 254.122-194.971 254.122-361.475 0-17.673-14.327-32-32-32s-32 14.327-32 32c0 176.731-143.269 320-320 320s-320-143.269-320-320c0-16.2-12.039-29.589-27.658-31.708l-4.342-0.292c-17.673 0-32 14.327-32 32 0 166.503 105.972 308.256 254.148 361.49-56.998 40.596-94.148 107.215-94.148 182.51 0 123.712 100.288 224 224 224zM718.742 448.411l2.332-0.406c137.173-47.187 197.304-159.734 216.965-203.857 9.069-20.353 16.413-47.243 22.032-80.668 7.624-45.349-22.032-88.351-66.651-97.668 1.684 6.23 2.58 12.771 2.58 19.521l-0.034 5.438c-1.744 138.411-69.973 263.692-177.579 341.099-0.444 0.319-1.214 0.887-2.311 1.703l-1.893 1.407c-3.299 2.466-3.974 7.14-1.508 10.439 1.455 1.947 3.729 3.022 6.067 2.993zM469.333 789.333c-88.366 0-160-71.634-160-160s71.634-160 160-160c88.366 0 160 71.634 160 160s-71.634 160-160 160zM614.118 863.315c104.077-8.532 185.882-95.704 185.882-201.982 0-69.746-35.231-131.262-88.868-167.725l-0.586-0.395-0.616-0.407c-2.423-1.597-5.681-0.928-7.279 1.494-0.719 1.090-0.994 2.387-0.815 3.638l0.61 1.81c21.627 38.861 33.553 83.234 33.553 129.586 0 94.229-48.874 177.043-122.655 224.477-0.054 0.035-0.352 0.213-0.896 0.536l-0.999 0.592c-2.143 1.27-2.852 4.037-1.582 6.18 0.88 1.485 2.529 2.338 4.25 2.197z" />
<glyph unicode="&#xe92c;" glyph-name="contacts-group-filled" d="M458.667 426.667c234.667 0 326.198-168.686 351.373-225.185 9.069-20.354 16.413-47.243 22.033-80.669 7.812-46.476-23.53-90.486-70.006-98.299-4.675-0.786-9.407-1.181-14.147-1.181h-579.083c-47.129-0.001-85.334 38.205-85.334 85.333 0 4.707 0.39 9.407 1.165 14.050 5.587 33.47 13.13 60.392 22.628 80.765 26.341 56.499 116.706 225.185 351.373 225.185zM671.595 434.583c156.714-20.651 277.738-154.817 277.738-317.25 0-34.543-27.366-62.694-61.601-63.956l-2.399-0.048h-2.856c1.514 2.616 2.488 5.582 2.771 8.748l0.085 1.922v21.333c0 143.865-87.904 269.251-218.010 335.027l-0.050 0.025-0.050 0.026c-3.708 1.872-5.197 6.396-3.325 10.104 1.080 2.14 3.087 3.593 5.36 4.009l2.337 0.058zM576 874.667c106.039 0 192-85.961 192-192 0-47.919-17.555-91.739-46.584-125.377-20.166-23.368-45.868-41.823-75.070-53.327l-0.427-0.16-0.627-0.225c-2.719-0.954-5.697 0.476-6.651 3.195-0.404 1.151-0.386 2.387 0.016 3.501l0.888 1.553c33.599 40.595 53.789 92.693 53.789 149.507 0 86.846-47.176 162.673-117.3 203.253l-1.098 0.627-1.202 0.668c-2.264 1.251-3.086 4.102-1.834 6.366 0.825 1.492 2.395 2.419 4.1 2.419zM458.667 853.333c-106.039 0-192-85.961-192-192s85.961-192 192-192c106.039 0 192 85.961 192 192s-85.961 192-192 192z" />
<glyph unicode="&#xe92d;" glyph-name="back" d="M226.594 373.335l256.14-256.243c11.037-12.569 10.557-31.722-1.44-43.719s-31.15-12.477-43.719-1.44l-1.536 1.44-299.963 299.962h90.517zM481.294 822.627c11.997-11.997 12.477-31.15 1.44-43.719l-1.44-1.536-297.379-297.373h712.085c17.042 0 30.972-13.322 31.946-30.12l0.054-1.88c0-17.042-13.322-30.972-30.12-31.946l-1.88-0.054h-763.582c-11.316 0-22.168 4.495-30.17 12.497-16.107 16.107-16.644 41.888-1.611 58.64l1.611 1.7 333.791 333.791c12.497 12.497 32.758 12.497 45.255 0z" />
<glyph unicode="&#xe92e;" glyph-name="app-filled" d="M314.33 416c50.729 0 74.25-6.29 96.336-18.102s39.42-29.145 51.232-51.232l2.217-4.3c10.38-20.935 15.885-44.581 15.885-92.037v-52.66c0-50.729-6.29-74.25-18.102-96.336s-29.145-39.42-51.232-51.232l-4.3-2.217c-20.935-10.38-44.581-15.885-92.037-15.885h-52.66c-50.729 0-74.25 6.29-96.336 18.102s-39.42 29.145-51.232 51.232l-2.217 4.3c-10.022 20.213-15.5 42.953-15.866 87.212l-0.020 57.485c0 50.729 6.29 74.25 18.102 96.336s29.145 39.42 51.232 51.232l4.3 2.217c20.213 10.022 42.953 15.5 87.212 15.866l57.485 0.020zM762.33 416c50.729 0 74.25-6.29 96.336-18.102s39.42-29.145 51.232-51.232l2.217-4.3c10.38-20.935 15.885-44.581 15.885-92.037v-52.66c0-50.729-6.29-74.25-18.102-96.336s-29.145-39.42-51.232-51.232l-4.3-2.217c-20.935-10.38-44.581-15.885-92.037-15.885h-52.66c-50.729 0-74.25 6.29-96.336 18.102s-39.42 29.145-51.232 51.232l-2.217 4.3c-10.022 20.213-15.5 42.953-15.866 87.212l-0.020 57.485c0 50.729 6.29 74.25 18.102 96.336s29.145 39.42 51.232 51.232l4.3 2.217c20.213 10.022 42.953 15.5 87.212 15.866l57.485 0.020zM314.33 864c50.729 0 74.25-6.29 96.336-18.102s39.42-29.145 51.232-51.232l2.217-4.3c10.38-20.935 15.885-44.581 15.885-92.037v-52.66c0-50.729-6.29-74.25-18.102-96.336s-29.145-39.42-51.232-51.232l-4.3-2.217c-20.935-10.38-44.581-15.885-92.037-15.885h-52.66c-50.729 0-74.25 6.29-96.336 18.102s-39.42 29.145-51.232 51.232l-2.217 4.3c-10.022 20.213-15.5 42.953-15.866 87.212l-0.020 57.485c0 50.729 6.29 74.25 18.102 96.336s29.145 39.42 51.232 51.232l4.3 2.217c20.213 10.022 42.953 15.5 87.212 15.866l57.485 0.020zM762.33 864c50.729 0 74.25-6.29 96.336-18.102s39.42-29.145 51.232-51.232l2.217-4.3c10.38-20.935 15.885-44.581 15.885-92.037v-52.66c0-50.729-6.29-74.25-18.102-96.336s-29.145-39.42-51.232-51.232l-4.3-2.217c-20.935-10.38-44.581-15.885-92.037-15.885h-52.66c-50.729 0-74.25 6.29-96.336 18.102s-39.42 29.145-51.232 51.232l-2.217 4.3c-10.022 20.213-15.5 42.953-15.866 87.212l-0.020 57.485c0 50.729 6.29 74.25 18.102 96.336s29.145 39.42 51.232 51.232l4.3 2.217c20.213 10.022 42.953 15.5 87.212 15.866l57.485 0.020z" />
<glyph unicode="&#xe92f;" glyph-name="app" d="M256.845 415.98l57.485 0.020c50.729 0 74.25-6.29 96.336-18.102s39.42-29.145 51.232-51.232l2.217-4.3c10.38-20.935 15.885-44.581 15.885-92.037v-52.66c0-50.729-6.29-74.25-18.102-96.336s-29.145-39.42-51.232-51.232l-4.3-2.217c-20.935-10.38-44.581-15.885-92.037-15.885h-52.66c-50.729 0-74.25 6.29-96.336 18.102s-39.42 29.145-51.232 51.232l-2.217 4.3c-10.022 20.213-15.5 42.953-15.866 87.212l-0.020 57.485c0 50.729 6.29 74.25 18.102 96.336s29.145 39.42 51.232 51.232l4.3 2.217c20.213 10.022 42.953 15.5 87.212 15.866zM704.845 415.98l57.485 0.020c50.729 0 74.25-6.29 96.336-18.102s39.42-29.145 51.232-51.232l2.217-4.3c10.38-20.935 15.885-44.581 15.885-92.037v-52.66c0-50.729-6.29-74.25-18.102-96.336s-29.145-39.42-51.232-51.232l-4.3-2.217c-20.935-10.38-44.581-15.885-92.037-15.885h-52.66c-50.729 0-74.25 6.29-96.336 18.102s-39.42 29.145-51.232 51.232l-2.217 4.3c-10.022 20.213-15.5 42.953-15.866 87.212l-0.020 57.485c0 50.729 6.29 74.25 18.102 96.336s29.145 39.42 51.232 51.232l4.3 2.217c20.213 10.022 42.953 15.5 87.212 15.866zM314.352 352l-56.978-0.017-7.174-0.107c-26.334-0.586-39.558-3.189-49.902-8.003l-1.334-0.64-3.448-1.77c-10.933-5.847-19.131-14.045-24.978-24.978-6.727-12.578-9.849-25.747-10.435-55.016l-0.103-11.116 0.017-56.978 0.107-7.174c0.586-26.334 3.189-39.558 8.003-49.902l0.64-1.334 1.77-3.448c5.847-10.933 14.045-19.131 24.978-24.978 12.578-6.727 25.747-9.849 55.032-10.435l11.123-0.103 59.927 0.044c29.066 0.366 43.247 3.022 54.146 8.103l1.293 0.621 3.448 1.77c10.933 5.847 19.131 14.045 24.978 24.978 6.727 12.578 9.849 25.747 10.435 55.032l0.103 11.123v52.66l-0.044 7.267c-0.366 29.066-3.022 43.247-8.103 54.146l-0.621 1.293-1.77 3.448c-5.847 10.933-14.045 19.131-24.978 24.978-12.578 6.727-25.747 9.849-55.032 10.435l-11.101 0.103zM762.352 352l-56.978-0.017-7.174-0.107c-26.334-0.586-39.558-3.189-49.902-8.003l-1.334-0.64-3.448-1.77c-10.933-5.847-19.131-14.045-24.978-24.978-6.727-12.578-9.849-25.747-10.435-55.016l-0.103-11.116 0.017-56.978 0.107-7.174c0.586-26.334 3.189-39.558 8.003-49.902l0.64-1.334 1.77-3.448c5.847-10.933 14.045-19.131 24.978-24.978 12.578-6.727 25.747-9.849 55.032-10.435l11.123-0.103 59.927 0.044c29.066 0.366 43.247 3.022 54.146 8.103l1.293 0.621 3.448 1.77c10.933 5.847 19.131 14.045 24.978 24.978 6.727 12.578 9.849 25.747 10.435 55.032l0.103 11.123v52.66l-0.044 7.267c-0.366 29.066-3.022 43.247-8.103 54.146l-0.621 1.293-1.77 3.448c-5.847 10.933-14.045 19.131-24.978 24.978-12.578 6.727-25.747 9.849-55.032 10.435l-11.101 0.103zM256.845 863.98l57.485 0.020c50.729 0 74.25-6.29 96.336-18.102s39.42-29.145 51.232-51.232l2.217-4.3c10.38-20.935 15.885-44.581 15.885-92.037v-52.66c0-50.729-6.29-74.25-18.102-96.336s-29.145-39.42-51.232-51.232l-4.3-2.217c-20.935-10.38-44.581-15.885-92.037-15.885h-52.66c-50.729 0-74.25 6.29-96.336 18.102s-39.42 29.145-51.232 51.232l-2.217 4.3c-10.022 20.213-15.5 42.953-15.866 87.212l-0.020 57.485c0 50.729 6.29 74.25 18.102 96.336s29.145 39.42 51.232 51.232l4.3 2.217c20.213 10.022 42.953 15.5 87.212 15.866zM704.845 863.98l57.485 0.020c50.729 0 74.25-6.29 96.336-18.102s39.42-29.145 51.232-51.232l2.217-4.3c10.38-20.935 15.885-44.581 15.885-92.037v-52.66c0-50.729-6.29-74.25-18.102-96.336s-29.145-39.42-51.232-51.232l-4.3-2.217c-20.935-10.38-44.581-15.885-92.037-15.885h-52.66c-50.729 0-74.25 6.29-96.336 18.102s-39.42 29.145-51.232 51.232l-2.217 4.3c-10.022 20.213-15.5 42.953-15.866 87.212l-0.020 57.485c0 50.729 6.29 74.25 18.102 96.336s29.145 39.42 51.232 51.232l4.3 2.217c20.213 10.022 42.953 15.5 87.212 15.866zM314.352 800l-56.978-0.017-7.174-0.107c-26.334-0.586-39.558-3.189-49.902-8.003l-1.334-0.64-3.448-1.77c-10.933-5.847-19.131-14.045-24.978-24.978-6.727-12.578-9.849-25.747-10.435-55.016l-0.103-11.116 0.017-56.978 0.107-7.174c0.586-26.334 3.189-39.558 8.003-49.902l0.64-1.334 1.77-3.448c5.847-10.933 14.045-19.131 24.978-24.978 12.578-6.727 25.747-9.849 55.032-10.435l11.123-0.103 59.927 0.044c29.066 0.366 43.247 3.022 54.146 8.103l1.293 0.621 3.448 1.77c10.933 5.847 19.131 14.045 24.978 24.978 6.727 12.578 9.849 25.747 10.435 55.032l0.103 11.123v52.66l-0.044 7.267c-0.366 29.066-3.022 43.247-8.103 54.146l-0.621 1.293-1.77 3.448c-5.847 10.933-14.045 19.131-24.978 24.978-12.578 6.727-25.747 9.849-55.032 10.435l-11.101 0.103zM762.352 800l-56.978-0.017-7.174-0.107c-26.334-0.586-39.558-3.189-49.902-8.003l-1.334-0.64-3.448-1.77c-10.933-5.847-19.131-14.045-24.978-24.978-6.727-12.578-9.849-25.747-10.435-55.016l-0.103-11.116 0.017-56.978 0.107-7.174c0.586-26.334 3.189-39.558 8.003-49.902l0.64-1.334 1.77-3.448c5.847-10.933 14.045-19.131 24.978-24.978 12.578-6.727 25.747-9.849 55.032-10.435l11.123-0.103 59.927 0.044c29.066 0.366 43.247 3.022 54.146 8.103l1.293 0.621 3.448 1.77c10.933 5.847 19.131 14.045 24.978 24.978 6.727 12.578 9.849 25.747 10.435 55.032l0.103 11.123v52.66l-0.044 7.267c-0.366 29.066-3.022 43.247-8.103 54.146l-0.621 1.293-1.77 3.448c-5.847 10.933-14.045 19.131-24.978 24.978-12.578 6.727-25.747 9.849-55.032 10.435l-11.101 0.103z" />
<glyph unicode="&#xe930;" glyph-name="calendar" d="M693.333 917.333c21.881 0 39.915-16.471 42.38-37.691l0.287-4.976v-85.333c0-23.564-19.103-42.667-42.667-42.667s-42.667 19.103-42.667 42.667v21.333h-277.333v-21.333c0-23.564-19.103-42.667-42.667-42.667s-42.667 19.103-42.667 42.667v21.333h-32c-57.912 0-105.045-46.151-106.626-103.681l-0.041-66.986h725.333v64c0 55.302-42.085 100.775-95.976 106.138l0.015 64.199c89.269-5.525 159.961-79.675 159.961-170.336v-512c0-94.257-76.41-170.667-170.667-170.667h-512c-94.257 0-170.667 76.41-170.667 170.667v512c0 94.257 76.41 170.667 170.667 170.667h32c0 23.564 19.103 42.667 42.667 42.667s42.667-19.103 42.667-42.667h277.333c0 23.564 19.103 42.667 42.667 42.667zM874.667 576h-725.333v-384c0-57.912 46.151-105.045 103.681-106.626l2.986-0.041h512c57.912 0 105.045 46.151 106.626 103.681l0.041 2.986v384z" />
<glyph unicode="&#xe931;" glyph-name="cards" d="M981.333 234.667c0-94.257-76.41-170.667-170.667-170.667h-597.333c-94.257 0-170.667 76.41-170.667 170.667v426.667c0 94.257 76.41 170.667 170.667 170.667h597.333c91.4 0 166.019-71.849 170.458-162.149l0.209-8.518v-426.667zM917.333 576h-810.667v-341.333c0-57.912 46.151-105.045 103.681-106.626l2.986-0.041h597.333c57.912 0 105.045 46.151 106.626 103.681l0.041 2.986v341.333zM480 512c17.673 0 32-14.327 32-32s-14.327-32-32-32h-277.333c-17.673 0-32 14.327-32 32s14.327 32 32 32h277.333zM813.652 767.959l-600.319 0.041c-57.912 0-105.045-46.151-106.626-103.681l-0.041-2.986h810.667c0 57.912-46.151 105.045-103.681 106.626z" />
<glyph unicode="&#xe932;" glyph-name="camera" d="M645.146 832c27.958 0 54.143-13.696 70.090-36.66l48.616-70.007h89.481c70.692 0 128-57.308 128-128v-384c0-70.692-57.308-128-128-128h-682.667c-70.692 0-128 57.308-128 128v384c0 70.692 57.308 128 128 128h89.481l48.616 70.007c15.947 22.964 42.132 36.66 70.090 36.66h266.291zM645.146 768h-266.291c-6.99 0-13.536-3.424-17.523-9.165l-67.71-97.502h-122.956c-35.346 0-64-28.654-64-64v-384c0-35.346 28.654-64 64-64h682.667c35.346 0 64 28.654 64 64v384c0 35.346-28.654 64-64 64h-122.956l-67.71 97.502c-3.987 5.741-10.533 9.165-17.523 9.165zM512 629.333c111.93 0 202.667-90.737 202.667-202.667s-90.737-202.667-202.667-202.667c-111.93 0-202.667 90.737-202.667 202.667s90.737 202.667 202.667 202.667zM512 565.333c-76.583 0-138.667-62.083-138.667-138.667s62.083-138.667 138.667-138.667c76.583 0 138.667 62.083 138.667 138.667s-62.083 138.667-138.667 138.667z" />
<glyph unicode="&#xe933;" glyph-name="qr-code" d="M343.259 416c47.548 0 64.79-4.951 82.172-14.247s31.025-22.938 40.321-40.321c9.296-17.383 14.247-34.625 14.247-82.172v-99.852c0-47.548-4.951-64.79-14.247-82.172s-22.938-31.025-40.321-40.321c-17.383-9.296-34.625-14.247-82.172-14.247h-99.852c-47.548 0-64.79 4.951-82.172 14.247s-31.025 22.938-40.321 40.321c-8.677 16.224-13.568 32.325-14.181 73.058l-0.066 108.967c0 47.548 4.951 64.79 14.247 82.172s22.938 31.025 40.321 40.321c16.224 8.677 32.325 13.568 73.058 14.181l108.967 0.066zM633.985 170.667c9.51 0 12.958-0.99 16.434-2.849s6.205-4.588 8.064-8.064c1.859-3.477 2.849-6.925 2.849-16.434v-51.97c0-9.51-0.99-12.958-2.849-16.434s-4.588-6.205-8.064-8.064c-3.477-1.859-6.925-2.849-16.434-2.849h-51.97c-9.51 0-12.958 0.99-16.434 2.849s-6.205 4.588-8.064 8.064c-1.859 3.477-2.849 6.925-2.849 16.434v51.97c0 9.51 0.99 12.958 2.849 16.434s4.588 6.205 8.064 8.064c3.477 1.859 6.925 2.849 16.434 2.849h51.97zM868.652 170.667c9.51 0 12.958-0.99 16.434-2.849s6.205-4.588 8.064-8.064c1.859-3.477 2.849-6.925 2.849-16.434v-51.97c0-9.51-0.99-12.958-2.849-16.434s-4.588-6.205-8.064-8.064c-3.477-1.859-6.925-2.849-16.434-2.849h-51.97c-9.51 0-12.958 0.99-16.434 2.849s-6.205 4.588-8.064 8.064c-1.859 3.477-2.849 6.925-2.849 16.434v51.97c0 9.51 0.99 12.958 2.849 16.434s4.588 6.205 8.064 8.064c3.477 1.859 6.925 2.849 16.434 2.849h51.97zM350.608 351.968h-114.55l-13.329-0.304c-17.466-0.713-24.353-2.625-31.313-6.347-6.23-3.332-10.736-7.838-14.067-14.067l-2.055-4.334c-3.066-7.509-4.383-17.192-4.597-40.307v-114.55l0.304-13.329c0.713-17.466 2.625-24.352 6.347-31.313 3.332-6.23 7.838-10.736 14.067-14.067l4.334-2.055c7.509-3.066 17.192-4.383 40.307-4.597l107.201-0.032c33.688 0 42.774 1.755 51.99 6.683 6.23 3.332 10.736 7.838 14.067 14.067l2.055 4.334c3.066 7.509 4.383 17.192 4.597 40.307l0.032 107.201c0 33.688-1.755 42.774-6.683 51.99-3.332 6.23-7.838 10.736-14.067 14.067l-4.334 2.055c-7.509 3.066-17.192 4.383-40.307 4.597zM751.319 288c9.51 0 12.958-0.99 16.434-2.849s6.205-4.588 8.064-8.064c1.859-3.477 2.849-6.925 2.849-16.434v-51.97c0-9.51-0.99-12.958-2.849-16.434s-4.588-6.205-8.064-8.064c-3.477-1.859-6.925-2.849-16.434-2.849h-51.97c-9.51 0-12.958 0.99-16.434 2.849s-6.205 4.588-8.064 8.064c-1.859 3.477-2.849 6.925-2.849 16.434v51.97c0 9.51 0.99 12.958 2.849 16.434s4.588 6.205 8.064 8.064c3.477 1.859 6.925 2.849 16.434 2.849h51.97zM327.659 277.333c4.755 0 6.479-0.495 8.217-1.425s3.102-2.294 4.032-4.032c0.93-1.738 1.425-3.462 1.425-8.217v-68.652c0-4.755-0.495-6.479-1.425-8.217s-2.294-3.102-4.032-4.032c-1.738-0.93-3.462-1.425-8.217-1.425h-68.652c-4.755 0-6.479 0.495-8.217 1.425s-3.102 2.294-4.032 4.032c-0.93 1.738-1.425 3.462-1.425 8.217v68.652c0 4.755 0.495 6.479 1.425 8.217s2.294 3.102 4.032 4.032c1.738 0.93 3.462 1.425 8.217 1.425h68.652zM633.985 405.333c9.51 0 12.958-0.99 16.434-2.849s6.205-4.588 8.064-8.064c1.859-3.477 2.849-6.925 2.849-16.434v-51.97c0-9.51-0.99-12.958-2.849-16.434s-4.588-6.205-8.064-8.064c-3.477-1.859-6.925-2.849-16.434-2.849h-51.97c-9.51 0-12.958 0.99-16.434 2.849s-6.205 4.588-8.064 8.064c-1.859 3.477-2.849 6.925-2.849 16.434v51.97c0 9.51 0.99 12.958 2.849 16.434s4.588 6.205 8.064 8.064c3.477 1.859 6.925 2.849 16.434 2.849h51.97zM868.652 405.333c9.51 0 12.958-0.99 16.434-2.849s6.205-4.588 8.064-8.064c1.859-3.477 2.849-6.925 2.849-16.434v-51.97c0-9.51-0.99-12.958-2.849-16.434s-4.588-6.205-8.064-8.064c-3.477-1.859-6.925-2.849-16.434-2.849h-51.97c-9.51 0-12.958 0.99-16.434 2.849s-6.205 4.588-8.064 8.064c-1.859 3.477-2.849 6.925-2.849 16.434v51.97c0 9.51 0.99 12.958 2.849 16.434s4.588 6.205 8.064 8.064c3.477 1.859 6.925 2.849 16.434 2.849h51.97zM343.259 853.333c47.548 0 64.79-4.951 82.172-14.247s31.025-22.938 40.321-40.321c9.296-17.383 14.247-34.625 14.247-82.172v-99.852c0-47.548-4.951-64.79-14.247-82.172s-22.938-31.025-40.321-40.321c-17.383-9.296-34.625-14.247-82.172-14.247h-99.852c-47.548 0-64.79 4.951-82.172 14.247s-31.025 22.938-40.321 40.321c-8.677 16.224-13.568 32.325-14.181 73.058l-0.066 108.967c0 47.548 4.951 64.79 14.247 82.172s22.938 31.025 40.321 40.321c16.224 8.677 32.325 13.568 73.058 14.181l108.967 0.066zM780.593 853.333c47.548 0 64.79-4.951 82.172-14.247s31.025-22.938 40.321-40.321c9.296-17.383 14.247-34.625 14.247-82.172v-99.852c0-47.548-4.951-64.79-14.247-82.172s-22.938-31.025-40.321-40.321c-17.383-9.296-34.625-14.247-82.172-14.247h-99.852c-47.548 0-64.79 4.951-82.172 14.247s-31.025 22.938-40.321 40.321c-8.677 16.224-13.568 32.325-14.181 73.058l-0.066 108.967c0 47.548 4.951 64.79 14.247 82.172s22.938 31.025 40.321 40.321c16.224 8.677 32.325 13.568 73.058 14.181l108.967 0.066zM350.608 789.302h-114.55l-13.329-0.304c-17.466-0.713-24.353-2.625-31.313-6.347-6.23-3.332-10.736-7.838-14.067-14.067l-2.055-4.334c-3.066-7.509-4.383-17.192-4.597-40.307v-114.55l0.304-13.329c0.713-17.466 2.625-24.353 6.347-31.313 3.332-6.23 7.838-10.736 14.067-14.067l4.334-2.055c7.509-3.066 17.192-4.383 40.307-4.597l107.201-0.032c33.688 0 42.774 1.755 51.99 6.683 6.23 3.332 10.736 7.838 14.067 14.067l2.055 4.334c3.066 7.509 4.383 17.192 4.597 40.307l0.032 107.201c0 33.688-1.755 42.774-6.683 51.99-3.332 6.23-7.838 10.736-14.067 14.067l-4.334 2.055c-7.509 3.066-17.192 4.383-40.307 4.597zM787.942 789.302h-114.55l-13.329-0.304c-17.466-0.713-24.352-2.625-31.313-6.347-6.23-3.332-10.736-7.838-14.067-14.067l-2.055-4.334c-3.066-7.509-4.383-17.192-4.597-40.307v-114.55l0.304-13.329c0.713-17.466 2.625-24.353 6.347-31.313 3.332-6.23 7.838-10.736 14.067-14.067l4.334-2.055c7.509-3.066 17.192-4.383 40.307-4.597l107.201-0.032c33.688 0 42.774 1.755 51.99 6.683 6.23 3.332 10.736 7.838 14.067 14.067l2.055 4.334c3.066 7.509 4.383 17.192 4.597 40.307l0.032 107.201c0 33.688-1.755 42.774-6.683 51.99-3.332 6.23-7.838 10.736-14.067 14.067l-4.334 2.055c-7.509 3.066-17.192 4.383-40.307 4.597zM327.659 714.667c4.755 0 6.479-0.495 8.217-1.425s3.102-2.294 4.032-4.032c0.93-1.738 1.425-3.462 1.425-8.217v-68.652c0-4.755-0.495-6.479-1.425-8.217s-2.294-3.102-4.032-4.032c-1.738-0.93-3.462-1.425-8.217-1.425h-68.652c-4.755 0-6.479 0.495-8.217 1.425s-3.102 2.294-4.032 4.032c-0.93 1.738-1.425 3.462-1.425 8.217v68.652c0 4.755 0.495 6.479 1.425 8.217s2.294 3.102 4.032 4.032c1.738 0.93 3.462 1.425 8.217 1.425h68.652zM764.993 714.667c4.755 0 6.479-0.495 8.217-1.425s3.102-2.294 4.032-4.032c0.93-1.738 1.425-3.462 1.425-8.217v-68.652c0-4.755-0.495-6.479-1.425-8.217s-2.294-3.102-4.032-4.032c-1.738-0.93-3.462-1.425-8.217-1.425h-68.652c-4.755 0-6.479 0.495-8.217 1.425s-3.102 2.294-4.032 4.032c-0.93 1.738-1.425 3.462-1.425 8.217v68.652c0 4.755 0.495 6.479 1.425 8.217s2.294 3.102 4.032 4.032c1.738 0.93 3.462 1.425 8.217 1.425h68.652z" />
<glyph unicode="&#xe934;" glyph-name="file-filled" d="M629.888 917.343l266.112-266.027v-501.983c0-94.257-76.41-170.667-170.667-170.667h-426.667c-94.257 0-170.667 76.41-170.667 170.667v597.333c0 94.257 76.41 170.667 170.667 170.667l331.221 0.010zM704 330.667h-384c-17.673 0-32-14.327-32-32s14.327-32 32-32v0h384c17.673 0 32 14.327 32 32s-14.327 32-32 32v0zM490.667 512h-170.667c-17.673 0-32-14.327-32-32s14.327-32 32-32v0h170.667c17.673 0 32 14.327 32 32s-14.327 32-32 32v0zM586.667 853.333v-128c0-58.91 47.756-106.667 106.667-106.667v0h128l-234.667 234.667z" />
<glyph unicode="&#xe935;" glyph-name="file" d="M629.931 917.343l266.069-266.048v-64.628h-202.667c-70.692 0-128 57.308-128 128v138.719l-266.667-0.052c-57.912 0-105.045-46.151-106.626-103.681l-0.041-600.319c0-57.912 46.151-105.045 103.681-106.626l2.986-0.041h426.667c57.912 0 105.045 46.151 106.626 103.681l0.041 2.986v394.676h64v-394.676c0-94.257-76.41-170.667-170.667-170.667h-426.667c-94.257 0-170.667 76.41-170.667 170.667v597.333c0 94.257 76.41 170.667 170.667 170.667l331.264 0.010zM704 330.667c17.673 0 32-14.327 32-32s-14.327-32-32-32h-384c-17.673 0-32 14.327-32 32s14.327 32 32 32h384zM490.667 512c17.673 0 32-14.327 32-32s-14.327-32-32-32h-170.667c-17.673 0-32 14.327-32 32s14.327 32 32 32h170.667zM629.333 827.444v-112.778c0-34.543 27.366-62.694 61.601-63.956l2.399-0.044 112.811 0.010-176.811 176.768z" />
<glyph unicode="&#xe936;" glyph-name="feedback" d="M677.215 917.333c74.458 0 102.467-7.588 129.7-21.855l1.775-0.94c26.488-14.166 47.547-34.638 62.342-60.581l2.172-3.932c13.644-25.513 21.438-50.836 22.633-113.573-12.568-4.065-24.353-11.042-34.296-20.984l-29.542-29.483v32.564c0 59.699-3.964 80.225-15.231 101.293-8.909 16.659-21.601 29.351-38.26 38.26-20.015 10.704-39.541 14.817-92.627 15.201l-352.097-0.041c-49.834-0.577-68.832-4.753-88.292-15.161-16.659-8.909-29.351-21.601-38.26-38.26-11.268-21.069-15.231-41.595-15.231-101.293l0.007-505.501 0.063-8.596c0.577-49.834 4.753-68.832 15.161-88.292 8.909-16.659 21.601-29.351 38.26-38.26 20.015-10.704 39.541-14.817 92.627-15.201l8.666-0.030h330.43c59.699 0 80.225 3.964 101.293 15.231 16.659 8.909 29.351 21.601 38.26 38.26 10.704 20.015 14.817 39.541 15.201 92.627l0.030 8.666v227.167l64 64v-291.167l-0.043-9.452c-0.629-67.44-8.165-94.199-21.812-120.248l-0.94-1.775c-14.166-26.488-34.638-47.547-60.581-62.342l-3.932-2.172c-27.812-14.874-55.399-22.795-131.476-22.795l-339.882 0.043c-67.44 0.629-94.199 8.165-120.248 21.812l-1.775 0.94c-26.488 14.166-47.547 34.638-62.342 60.581l-2.172 3.932c-14.874 27.812-22.795 55.399-22.795 131.476v501.097c0 74.458 7.588 102.467 21.855 129.7l0.94 1.775c14.166 26.488 34.638 47.547 60.581 62.342l3.932 2.172c27.812 14.874 55.399 22.795 131.476 22.795h330.43zM952.052 665.297c16.662-16.662 16.662-43.677 0-60.34l-392.209-392.209c-16.662-16.662-43.677-16.662-60.34 0s-16.662 43.677 0 60.34l392.209 392.209c16.662 16.662 43.677 16.662 60.34 0zM646.059 480l-64-64h-262.059c-17.673 0-32 14.327-32 32s14.327 32 32 32h326.059zM704 693.333c17.673 0 32-14.327 32-32s-14.327-32-32-32h-384c-17.673 0-32 14.327-32 32s14.327 32 32 32h384z" />
<glyph unicode="&#xe937;" glyph-name="favor-filled" d="M518.8 761.19c6.953-6.973 14.327-14.397 21.781-21.93l14.911-15.11c22.221-22.579 43.101-44.084 53.403-55.274v0l6.061-6.651c11.831-13.129 32.065-14.181 45.194-2.35s14.181 32.065 2.35 45.194c-16.711 18.544-60.547 63.348-97.208 100.135 109.153 59.046 248.376 42.449 340.607-49.782 106.93-106.93 102.299-273.629 3.915-404.808-30.069-40.091-76.083-90.071-135.107-147.006v0l-1.98-1.904c-28.874-27.661-78.819-71.539-150.085-131.881v0l-41.966-35.368c-39.718-33.334-97.655-33.276-137.306 0.138-97.311 82.001-162.545 138.872-196.175 171.070v0l-9.449 9.167c-53.504 52.303-95.474 98.35-123.548 135.783-98.384 131.179-103.016 297.878 3.915 404.808 107.972 107.972 280.346 112.291 393.471 12.957v0l0.417-0.378z" />
<glyph unicode="&#xe938;" glyph-name="favor" d="M119.233 758.941c100.309 100.309 256.203 111.156 368.534 32.54 13.635-9.599 26.632-20.412 38.76-32.54l-5.806 5.609c0.811-0.743 1.627-1.511 2.449-2.306l3.358-3.303c4.519-4.519 8.896-8.91 13.13-13.171 6.502-6.541 12.922-13.031 19.249-19.46l5.11-5.244c19.536-19.988 34.999-36.3 46.423-48.977 11.831-13.129 10.779-33.363-2.35-45.194s-33.363-10.779-45.194 2.35l-6.061 6.651c-17.171 18.651-42.391 44.621-75.562 77.791l-7.629 7.284c-87.909 80.122-224.177 77.694-309.155-7.284-82.29-82.29-78.642-213.59 2.031-321.153 26.765-35.687 68.64-81.396 122.708-133.893v0l1.705-1.649c24.923-24.021 70.603-64.366 136.779-120.782v0l44.244-37.533c23.813-20.113 58.653-20.145 82.497-0.081v0l40.441 34.183c65.213 55.398 110.792 95.613 136.502 120.413v0l11.182 10.857c51.37 50.214 91.303 94.014 117.158 128.486 80.673 107.564 84.321 238.863 2.031 321.153-72.422 72.422-182.095 84.886-267.34 37.394-12.234 12.426-24.81 25.114-37.727 38.031-2.927 2.927-5.898 5.787-8.91 8.581 111.437 71.751 261.641 58.84 359.232-38.751 106.93-106.93 102.299-273.629 3.915-404.808v0l-3.060-4.042c-30.091-39.389-74.991-87.926-132.047-142.964v0l-2.043-1.963c-28.412-27.213-77.16-70.075-146.497-128.835v0l-31.622-26.7c-47.7-40.138-117.38-40.074-165.006 0.152-89.722 75.781-150.372 128.787-182.381 159.438v0l-9.41 9.131c-53.504 52.303-95.474 98.35-123.548 135.783-98.384 131.179-103.016 297.878 3.915 404.808z" />
<glyph unicode="&#xe939;" glyph-name="history" d="M70.764 287.675c0 0 0 0 0 0-18.181 50.025-28.097 104.017-28.097 160.325h121.681c11.782 0 21.333-9.551 21.333-21.333 0-3.971-1.108-7.863-3.2-11.238l-81.136-130.918c-4.971-8.021-15.502-10.493-23.523-5.522-3.261 2.021-5.747 5.081-7.057 8.687zM50.189 363.884c-4.992 27.575-7.522 55.692-7.522 84.116 0 259.206 210.128 469.333 469.333 469.333 33.388 0 66.346-3.492 98.486-10.357 214.862-45.897 370.847-236.497 370.847-458.976 0-259.206-210.128-469.333-469.333-469.333-46.581 0-92.287 6.797-136.042 20.028-64.578 19.529-124.003 52.818-174.428 97.329-13.25 11.696-14.509 31.918-2.814 45.167s31.918 14.509 45.167 2.814c43.565-38.455 94.874-67.198 150.6-84.050 37.764-11.42 77.228-17.289 117.516-17.289 223.859 0 405.333 181.474 405.333 405.333 0 192.133-134.735 356.767-320.216 396.388-27.753 5.928-56.229 8.945-85.117 8.945-223.859 0-405.333-181.474-405.333-405.333 0-24.596 2.187-48.898 6.499-72.715 3.148-17.39-8.397-34.040-25.788-37.189s-34.040 8.397-37.189 25.788zM512 746.667c17.673 0 32-14.327 32-32v-266.667c0-17.673-14.327-32-32-32s-32 14.327-32 32v266.667c0 17.673 14.327 32 32 32zM581.784 421.387l172.030-172.079c12.497-12.497 12.497-32.758 0-45.255s-32.758-12.497-45.255 0l-173.042 173.059c21.278 7.055 38.311 23.424 46.268 44.275zM535.082 468.039l8.904-8.889 0.013-11.15c0-17.673-14.327-32-32-32-15.578 0-28.556 11.131-31.414 25.874-0.963 9.34 2.097 19.022 9.242 26.166 12.497 12.497 32.758 12.497 45.255 0z" />
<glyph unicode="&#xe93a;" glyph-name="star-filled" d="M809.151 384.198l-17.329-16.908c-10.056-9.802-14.645-23.925-12.271-37.766l32.898-191.812c6.971-40.644-20.326-79.243-60.97-86.214-16.185-2.776-32.833-0.139-47.368 7.502l-133.62 70.248c64.385 53.861 126.665 124.556 186.841 212.085 6.171 6.015 25.603 21.272 51.818 42.865zM545.045 890.243c14.725-7.267 26.644-19.186 33.911-33.911l86.129-174.516c6.215-12.593 18.228-21.321 32.125-23.34l192.59-27.985c40.809-5.93 69.084-43.819 63.154-84.628-2.361-16.25-10.014-31.269-21.772-42.731l-96.758-94.316-27.947-24.044c-55.69-47.387-110.155-90.566-163.396-129.536-62.114-45.465-126.514-88.097-193.201-127.894l0.166 0.154-130.158-68.495c-36.5-19.189-81.646-5.156-100.835 31.344-7.641 14.535-10.278 31.183-7.502 47.368l32.898 191.812c2.374 13.841-2.215 27.963-12.271 37.766l-139.359 135.842c-29.529 28.784-30.134 76.057-1.35 105.586 11.462 11.759 26.481 19.411 42.731 21.772l192.59 27.985c13.897 2.019 25.91 10.748 32.125 23.34l86.129 174.516c18.25 36.979 63.022 52.162 100.001 33.911z" />
<glyph unicode="&#xe93b;" glyph-name="star" d="M560.564 890.243c14.725-7.267 26.644-19.186 33.911-33.911l86.129-174.516c6.215-12.593 18.228-21.321 32.125-23.34l192.59-27.985c40.809-5.93 69.084-43.819 63.154-84.628-2.361-16.25-10.014-31.269-21.772-42.731l-139.359-135.842c-10.056-9.802-14.645-23.925-12.271-37.766l32.898-191.812c6.971-40.644-20.326-79.243-60.97-86.214-16.185-2.776-32.833-0.139-47.368 7.502l-131.933 69.331c20.289 13.275 40.359 26.822 60.211 40.642l101.505-53.324c2.076-1.092 4.455-1.468 6.767-1.072 5.392 0.925 9.139 5.745 8.85 11.078l-0.14 1.238-31.757 185.016c-25.105-19.789-49.95-38.68-74.533-56.674l-37.543-26.939-37.189-25.649c-25.769-17.425-51.91-34.39-78.422-50.895l-40.047-24.411-129.992-68.341c-9.605-5.050-19.809-7.799-29.982-8.443l-6.094-0.136c-26.349 0.493-51.63 14.949-64.759 39.923-7.641 14.535-10.278 31.183-7.502 47.368l32.898 191.812c2.374 13.841-2.215 27.963-12.271 37.766l-139.359 135.842c-29.529 28.784-30.134 76.057-1.35 105.586 11.462 11.759 26.481 19.411 42.731 21.772l192.59 27.985c13.897 2.019 25.91 10.748 32.125 23.34l86.129 174.516c18.25 36.979 63.022 52.162 100.001 33.911zM525.646 833.788l-1.264-0.307c-0.464-0.143-0.917-0.317-1.358-0.521l1.358 0.521c-0.799-0.246-1.568-0.585-2.29-1.011l0.932 0.49c-0.727-0.337-1.418-0.757-2.057-1.253l1.125 0.764c-0.826-0.487-1.592-1.089-2.269-1.795l1.145 1.031c-0.621-0.483-1.193-1.038-1.703-1.661l-1.311-2.039-86.129-174.516c-4.371-8.857-9.89-16.949-16.338-24.119-0.444-0.494-0.892-0.983-1.344-1.467-1.035-1.108-2.094-2.195-3.174-3.257-0.82-0.807-1.679-1.625-2.552-2.428-0.886-0.815-1.788-1.618-2.702-2.404-1.068-0.918-2.156-1.816-3.261-2.693-0.911-0.722-1.825-1.423-2.751-2.11-1.137-0.843-2.295-1.666-3.469-2.466-0.902-0.615-1.821-1.221-2.75-1.813-1.315-0.838-2.643-1.644-3.989-2.421-1.063-0.614-2.141-1.211-3.229-1.79-1.089-0.579-2.188-1.14-3.297-1.682-1.114-0.544-2.236-1.068-3.368-1.572-1.402-0.625-2.83-1.225-4.271-1.794-0.93-0.367-1.868-0.722-2.812-1.064-1.382-0.501-2.767-0.971-4.164-1.413-1.329-0.421-2.68-0.819-4.040-1.191-1.121-0.306-2.245-0.594-3.376-0.864-0.678-0.162-1.366-0.319-2.056-0.469l-2.556-0.524c-0.487-0.094-0.976-0.184-1.466-0.271l-3.347-0.541-192.59-27.985c-2.321-0.337-4.467-1.431-6.104-3.11l-1.795-2.461c-0.131-0.248-0.252-0.5-0.362-0.755-0.253-0.586-0.449-1.186-0.592-1.796l0.592 1.796c-0.428-0.991-0.698-2.033-0.81-3.088l0.219 1.292c-0.235-1.005-0.321-2.038-0.261-3.063l0.042 1.771c-0.095-0.885-0.079-1.779 0.047-2.66l-0.090 0.889c0.057-0.975 0.248-1.944 0.572-2.876l-0.482 1.987c0.152-1.060 0.463-2.102 0.934-3.086l-0.452 1.099c0.313-0.902 0.75-1.769 1.311-2.576l1.32-1.557 139.359-135.842c7.548-7.358 13.864-15.689 18.847-24.682 0.507-0.915 0.991-1.819 1.461-2.73 0.729-1.409 1.435-2.855 2.108-4.315 0.394-0.855 0.778-1.717 1.15-2.585 0.675-1.574 1.311-3.159 1.908-4.759 0.285-0.762 0.566-1.542 0.838-2.326 0.507-1.461 0.982-2.929 1.424-4.408 0.473-1.582 0.91-3.176 1.31-4.78 0.234-0.938 0.455-1.881 0.664-2.827 0.287-1.299 0.549-2.604 0.787-3.915 0.279-1.534 0.526-3.087 0.738-4.645 0.054-0.395 0.106-0.793 0.156-1.192 0.258-2.067 0.456-4.138 0.593-6.217 0.042-0.63 0.078-1.271 0.109-1.913 0.087-1.828 0.128-3.662 0.121-5.498-0.005-1.403-0.039-2.824-0.101-4.247-0.057-1.29-0.136-2.57-0.238-3.851-0.041-0.506-0.085-1.019-0.134-1.532l-0.19-1.84c-0.101-0.897-0.213-1.793-0.336-2.69l-0.536-3.462-32.898-191.812c-0.397-2.312-0.020-4.69 1.072-6.767 0.632-1.202 1.46-2.233 2.425-3.074 0.385-0.337 0.798-0.647 1.23-0.925l-1.23 0.925c0.661-0.577 1.387-1.065 2.157-1.458l-0.927 0.534c0.71-0.458 1.471-0.828 2.263-1.105l-1.335 0.571c0.904-0.461 1.869-0.792 2.864-0.982l-1.528 0.411c1.691-0.591 3.528-0.759 5.335-0.447l-1.373-0.145c0.864 0.035 1.731 0.176 2.583 0.428l1.943 0.791 12.655 6.684 115.456 60.715 37.58 22.846c51.26 31.9 101.087 65.561 149.483 100.986 51.962 38.035 105.221 80.258 158.082 125.122l26.389 22.645 96.758 94.316c1.68 1.637 2.773 3.783 3.11 6.104l0.022 2.925c-0.046 0.35-0.109 0.696-0.189 1.037-0.12 0.515-0.281 1.024-0.477 1.516l0.477-1.516c-0.226 0.964-0.584 1.884-1.056 2.737l0.579-1.221c-0.315 0.79-0.723 1.537-1.212 2.226l0.632-1.005c-0.468 0.844-1.048 1.621-1.723 2.31l1.091-1.305c-0.487 0.686-1.054 1.315-1.69 1.871l0.6-0.566c-0.563 0.574-1.192 1.086-1.878 1.524l1.279-0.958c-0.736 0.643-1.564 1.188-2.467 1.613l1.188-0.655c-0.738 0.47-1.541 0.854-2.397 1.135l-1.802 0.422-192.59 27.985c-4.437 0.645-8.796 1.563-13.059 2.74-0.768 0.212-1.529 0.431-2.286 0.659-1.101 0.33-2.203 0.681-3.299 1.049-1.54 0.518-3.056 1.066-4.558 1.648-0.853 0.33-1.716 0.678-2.575 1.036-1.446 0.604-2.865 1.234-4.268 1.894-1.315 0.618-2.631 1.27-3.931 1.948-0.956 0.499-1.9 1.009-2.836 1.534-1.334 0.747-2.653 1.525-3.955 2.33-0.907 0.561-1.811 1.139-2.707 1.731-1.202 0.795-2.376 1.605-3.533 2.439-0.961 0.692-1.923 1.41-2.873 2.144-0.917 0.708-1.82 1.43-2.711 2.166-1.266 1.046-2.503 2.116-3.715 3.215-0.711 0.644-1.433 1.316-2.145 1.999-1.098 1.051-2.172 2.126-3.224 3.223-0.7 0.73-1.381 1.462-2.053 2.204-1.136 1.255-2.244 2.538-3.322 3.848-0.519 0.631-1.031 1.268-1.536 1.912-1.201 1.531-2.363 3.099-3.484 4.701-0.363 0.52-0.713 1.029-1.058 1.542-1.051 1.56-2.065 3.156-3.039 4.782-0.203 0.338-0.401 0.674-0.597 1.010l-0.981 1.717c-0.345 0.617-0.684 1.238-1.018 1.863l-1.549 3.016-86.129 174.516c-1.038 2.104-2.741 3.806-4.844 4.844l-1.608 0.563-0.949 0.319c-0.483 0.1-0.969 0.166-1.455 0.198-0.882 0.057-1.742 0.006-2.582-0.144z" />
<glyph unicode="&#xe93c;" glyph-name="location-filled" d="M512 922.008c217.833 0 394.667-173.491 394.667-387.812 0-83.466-25.282-165.023-72.208-247.45-36.226-63.633-81.509-122.651-146.299-195.842-24.467-27.639-56.825-58.962-97.146-94.103v0l-11.737-10.144c-37.235-31.923-91.982-32.914-130.878-2.084v0l-3.034 2.529-14.118 12.313c-37.095 32.532-64.137 57.759-81.603 76.235v0l-4.008 4.305-9.895 11.041c-141.994 159.715-218.408 295.146-218.408 443.2 0 212.752 168.871 384.352 383.294 387.764v0l6.25 0.049zM512 629.333c-53.019 0-96-42.981-96-96s42.981-96 96-96c53.019 0 96 42.981 96 96s-42.981 96-96 96z" />
<glyph unicode="&#xe93d;" glyph-name="location" d="M512 922.008c217.833 0 394.667-173.491 394.667-387.812 0-83.466-25.282-165.023-72.208-247.45-29.215-51.317-64.319-99.633-110.795-154.801v0l-11.375-13.377-11.829-13.67c-4.020-4.609-8.119-9.272-12.299-13.994-9.321-10.529-19.787-21.593-31.402-33.199v0l-8.927-8.806c-6.095-5.939-12.478-12.013-19.148-18.225v0l-10.222-9.42-5.273-4.787-10.871-9.729c-3.696-3.278-7.463-6.59-11.304-9.936v0l-11.737-10.144c-37.235-31.923-91.982-32.914-130.878-2.084v0l-3.034 2.529-14.118 12.313-8.71 7.668-12.344 10.979-11.484 10.358-10.629 9.742-9.778 9.132-6.049 5.752-5.674 5.485-5.302 5.22-4.93 4.956-4.56 4.695c-0.729 0.761-1.443 1.511-2.142 2.25v0l-4.008 4.305-9.895 11.041-10.932 12.397c-1.8 2.058-3.588 4.112-5.366 6.163v0l-10.531 12.257-10.263 12.168-5.030 6.052-9.858 12.042-9.587 11.964c-102.388 129.191-156.841 245.177-156.841 370.158 0 212.752 168.871 384.352 383.294 387.764v0l6.25 0.049zM512 858.009h-4.868l-5.741-0.045c-179.222-2.852-320.057-145.964-320.057-323.769 0-124.446 66.099-245.005 191.422-388.407v0l10.731-12.173 9.577-10.688c0.537-0.586 1.088-1.183 1.655-1.791v0l3.583-3.786 3.946-4.056 4.307-4.325 7.137-6.99 7.945-7.589 8.751-8.184 6.28-5.785 10.086-9.168 10.882-9.753 11.676-10.335 17.514-15.313 1.875-1.565c14.354-11.374 34.971-11 48.921 0.96v0l11.201 9.68 10.768 9.463c3.517 3.118 6.962 6.2 10.335 9.245v0l9.902 9.027 9.468 8.807 9.034 8.588 8.599 8.367c12.573 12.385 23.678 24.023 33.31 34.904 1.816 2.051 3.62 4.096 5.411 6.135v0l10.598 12.152c1.741 2.013 3.471 4.019 5.187 6.019v0l10.151 11.927 9.854 11.785c6.47 7.81 12.743 15.53 18.817 23.166v0l8.965 11.393c89.636 115.214 133.445 212.008 133.445 318.294 0 178.699-147.91 323.813-330.667 323.813v0zM512 629.333c53.019 0 96-42.981 96-96s-42.981-96-96-96c-53.019 0-96 42.981-96 96s42.981 96 96 96z" />
<glyph unicode="&#xe93e;" glyph-name="notes-filled" d="M677.215 917.333c74.458 0 102.467-7.588 129.7-21.855l1.775-0.94c26.488-14.166 47.547-34.638 62.342-60.581l2.172-3.932c14.874-27.812 22.795-55.399 22.795-131.476v-501.097l-0.043-9.452c-0.629-67.44-8.165-94.199-21.812-120.248l-0.94-1.775c-14.166-26.488-34.638-47.547-60.581-62.342l-3.932-2.172c-27.812-14.874-55.399-22.795-131.476-22.795l-339.882 0.043c-67.44 0.629-94.199 8.165-120.248 21.812l-1.775 0.94c-26.488 14.166-47.547 34.638-62.342 60.581l-2.172 3.932c-14.874 27.812-22.795 55.399-22.795 131.476v501.097c0 74.458 7.588 102.467 21.855 129.7l0.94 1.775c14.166 26.488 34.638 47.547 60.581 62.342l3.932 2.172c27.812 14.874 55.399 22.795 131.476 22.795h330.43zM512 266.667h-192c-17.673 0-32-14.327-32-32s14.327-32 32-32v0h192c17.673 0 32 14.327 32 32s-14.327 32-32 32v0zM704 480h-384c-17.673 0-32-14.327-32-32s14.327-32 32-32v0h384c17.673 0 32 14.327 32 32s-14.327 32-32 32v0zM704 693.333h-384c-17.673 0-32-14.327-32-32s14.327-32 32-32v0h384c17.673 0 32 14.327 32 32s-14.327 32-32 32v0z" />
<glyph unicode="&#xe93f;" glyph-name="notes" d="M677.215 917.333c74.458 0 102.467-7.588 129.7-21.855l1.775-0.94c26.488-14.166 47.547-34.638 62.342-60.581l2.172-3.932c14.874-27.812 22.795-55.399 22.795-131.476v-501.097l-0.043-9.452c-0.629-67.44-8.165-94.199-21.812-120.248l-0.94-1.775c-14.166-26.488-34.638-47.547-60.581-62.342l-3.932-2.172c-27.812-14.874-55.399-22.795-131.476-22.795l-339.882 0.043c-67.44 0.629-94.199 8.165-120.248 21.812l-1.775 0.94c-26.488 14.166-47.547 34.638-62.342 60.581l-2.172 3.932c-14.874 27.812-22.795 55.399-22.795 131.476v501.097c0 74.458 7.588 102.467 21.855 129.7l0.94 1.775c14.166 26.488 34.638 47.547 60.581 62.342l3.932 2.172c27.812 14.874 55.399 22.795 131.476 22.795h330.43zM685.881 853.303l-352.097-0.041c-49.834-0.577-68.832-4.753-88.292-15.161-16.659-8.909-29.351-21.601-38.26-38.26-11.268-21.069-15.231-41.595-15.231-101.293l0.007-505.501 0.063-8.596c0.577-49.834 4.753-68.832 15.161-88.292 8.909-16.659 21.601-29.351 38.26-38.26 20.015-10.704 39.541-14.817 92.627-15.201l8.666-0.030h330.43c59.699 0 80.225 3.964 101.293 15.231 16.659 8.909 29.351 21.601 38.26 38.26 10.704 20.015 14.817 39.541 15.201 92.627l0.030 8.666v501.097c0 59.699-3.964 80.225-15.231 101.293-8.909 16.659-21.601 29.351-38.26 38.26-20.015 10.704-39.541 14.817-92.627 15.201zM512 266.667c17.673 0 32-14.327 32-32s-14.327-32-32-32h-192c-17.673 0-32 14.327-32 32s14.327 32 32 32h192zM704 480c17.673 0 32-14.327 32-32s-14.327-32-32-32h-384c-17.673 0-32 14.327-32 32s14.327 32 32 32h384zM704 693.333c17.673 0 32-14.327 32-32s-14.327-32-32-32h-384c-17.673 0-32 14.327-32 32s14.327 32 32 32h384z" />
<glyph unicode="&#xe940;" glyph-name="password-invisible" d="M138.425 866.734l1.536-1.44 789.333-789.333c12.497-12.497 12.497-32.758 0-45.255-11.997-11.997-31.15-12.477-43.719-1.44l-1.536 1.44-164.163 164.17c-65.692-29.515-136.622-45.543-207.876-45.543-185.104 0-369.41 108.424-464.051 280.486-7.043 12.805-7.043 28.324 0.002 41.129 46.777 85.028 115.329 153.385 195.075 200.766l-148.319 148.325c-12.497 12.497-12.497 32.758 0 45.255 11.997 11.997 31.15 12.477 43.719 1.44zM112.086 454.152l-2.23-3.773 2.318-3.928c67.38-112.886 180.286-193.576 303.19-221.949-75.326 36.093-127.363 113.052-127.363 202.166 0 22.889 3.433 44.976 9.812 65.775 3.144 10.249 12.618 7.739 14.683-0.322 11.207-43.767 50.911-76.12 98.172-76.12 24.616 0 47.181 8.777 64.738 23.372l-185.491 185.449c-72.193-39.685-134.533-98.219-177.828-170.669zM608.661 224.538l10.509 2.543c17.545 4.508 34.856 10.086 51.829 16.674l-13.006 13.018c-14.874-12.793-31.446-23.666-49.332-32.235zM511.384 746.667c185.114 0 368.806-103.928 463.384-275.976 7.036-12.799 7.036-28.309 0-41.108-39.645-72.117-94.856-133.038-159.267-179.468l-45.937 45.926c56.275 38.791 105.019 89.839 140.972 150.148l2.317 3.944-2.231 3.79c-82.965 138.937-235.918 226.798-393.968 228.712l-5.27 0.032c-38.47 0-76.672-5.094-113.678-14.783l-51.345 51.347c53.257 17.963 109.069 27.436 165.023 27.436zM512 650.667l9.233-0.187c119.43-4.842 214.767-103.194 214.767-223.813 0-5.964-0.183-11.254-0.547-15.921-1.621-23.026-6.734-45.146-14.818-65.775l-290.345 290.326c4.385 1.719 8.837 3.303 13.352 4.748 0.239 0.069 0.52 0.168 0.811 0.259l4.548 1.382c0.769 0.225 1.54 0.446 2.313 0.663l-6.861-2.045c4.684 1.479 9.434 2.809 14.245 3.983l2.109 0.503c1.766 0.413 3.541 0.805 5.323 1.176l-7.432-1.679c4.85 1.184 9.761 2.209 14.728 3.071 2.965 0.514 5.928 0.967 8.91 1.362 0.952 0.126 1.91 0.247 2.87 0.361 3.103 0.37 6.23 0.677 9.376 0.919 1.472 0.113 2.944 0.212 4.42 0.296 4.301 0.246 8.635 0.371 12.998 0.371v0 0z" />
<glyph unicode="&#xe941;" glyph-name="password-visible" d="M511.384 746.667c185.114 0 368.806-103.928 463.384-275.976 7.036-12.799 7.036-28.309 0-41.108-94.528-171.954-277.553-280.25-462.768-280.25-185.104 0-369.41 108.424-464.051 280.486-7.043 12.805-7.043 28.324 0.002 41.129 94.595 171.949 278.238 275.719 463.434 275.719zM516.654 682.635l-5.27 0.032c-160.020 0-315.41-88.136-399.298-228.515l-2.23-3.773 2.318-3.928c67.38-112.886 180.286-193.576 303.19-221.949-75.326 36.093-127.363 113.052-127.363 202.166 0 22.889 3.433 44.976 9.812 65.775 3.144 10.249 12.618 7.739 14.683-0.322 11.207-43.767 50.911-76.12 98.172-76.12 55 0 99.766 43.818 101.293 98.448l0.040 2.885v10.667c0 44.117-28.192 81.649-67.543 95.563-8.927 3.157-9.742 13.666-0.004 16.741 4.684 1.479 9.434 2.809 14.245 3.983 17.084 4.169 34.935 6.38 53.303 6.38 123.712 0 224-100.288 224-224 0-89.096-52.017-166.043-127.339-202.128 122.453 28.314 234.573 108.76 301.875 221.651l2.317 3.944-2.231 3.79c-82.965 138.937-235.918 226.798-393.968 228.712z" />
<glyph unicode="&#xe942;" glyph-name="privacy" d="M456.157 904.488c35.265 17.098 76.421 17.098 111.686 0v0l274.039-132.868c33.099-16.048 54.118-49.598 54.118-86.382v0-205.238c0-224.678-143.107-420.698-351.962-492.688-0.55-0.19-1.481-0.494-2.793-0.914-19.034-6.089-39.494-6.086-58.527 0.008v0l-1.577 0.51-1.057 0.353c-208.917 71.945-352.085 267.996-352.085 492.731v0 205.238c0 36.784 21.019 70.334 54.118 86.382v0zM539.922 846.899c-17.633 8.549-38.21 8.549-55.843 0v0l-274.039-132.868c-11.033-5.349-18.039-16.533-18.039-28.794v0-205.238c0-87.736 24.872-170.484 68.644-240.872 2.527 13.789 6.086 25.309 10.679 34.649 17.544 35.684 63.127 142.222 240.754 142.222s223.987-106.539 240.754-142.222c4.417-9.399 7.869-21.005 10.356-34.818 42.879 68.758 67.663 149.426 68.774 235.028v0l0.039 6.013v205.238c0 12.261-7.006 23.445-18.039 28.794v0zM506.667 698.88c70.81 0 128.213-57.403 128.213-128.213s-57.403-128.213-128.213-128.213c-70.81 0-128.213 57.403-128.213 128.213s57.403 128.213 128.213 128.213z" />
<glyph unicode="&#xe943;" glyph-name="picture" d="M295.096 21.333c-61.186 0-90.964 5.75-121.915 22.303-28.174 15.068-50.477 37.37-65.544 65.544-2.523 4.718-4.707 9.192-6.679 13.757v0l-8.377 19.397 1.417 1.478c-5.702 21.396-8.664 49.785-8.664 96.305v415.764c0 74.458 7.588 102.467 21.855 129.7l0.94 1.775c14.166 26.488 34.638 47.547 60.581 62.342l3.932 2.172c27.812 14.874 55.399 22.795 131.476 22.795h415.764c74.458 0 102.467-7.588 129.7-21.855l1.775-0.94c26.488-14.166 47.547-34.638 62.342-60.581l2.172-3.932c14.874-27.812 22.795-55.399 22.795-131.476v-277.94l-64 64.043v213.898c0 59.699-3.964 80.225-15.231 101.293-8.909 16.659-21.601 29.351-38.26 38.26-20.015 10.704-39.541 14.817-92.627 15.201l-437.431-0.041c-49.834-0.577-68.832-4.753-88.292-15.161-16.659-8.909-29.351-21.601-38.26-38.26-11.268-21.069-15.231-41.595-15.231-101.293l0.007-420.168 0.063-8.596c0.114-9.861 0.369-18.515 0.786-26.204l115.674 115.665c26.084 25.669 42.721 36.604 64.712 43.269 21.144 6.409 43.038 6.409 64.624-0.137v0l3.571-1.143c20.051-6.745 36.366-18.018 61.139-42.423v0l4.866-4.864c12.512-12.494 32.786-12.492 45.284-0.006v0l120.68 120.65c26.084 25.669 42.721 36.604 64.712 43.269 21.144 6.409 43.038 6.409 64.182 0 22.133-6.708 38.77-17.714 65.156-43.709v0l113.877-113.866v-86.523c0-61.186-5.75-90.964-22.303-121.915-15.068-28.174-37.37-50.477-65.544-65.544-29.182-15.607-57.322-21.611-111.728-22.246v0l-10.187-0.057zM741.069 413.945c-9.040 2.74-18.014 2.74-27.054 0-11.433-3.465-20.091-9.321-41.198-30.428v0l-117.515-117.51c-37.494-37.456-98.247-37.462-135.76-0.004v0l-4.713 4.712c-18.27 17.998-26.939 23.988-35.986 27.036v0l-2.65 0.849c-9.040 2.74-18.014 2.74-27.054 0-11.433-3.465-20.091-9.321-41.198-30.428v0l-138.088-138.119c0.985-1.453 2.004-2.871 3.058-4.252-0.039-0.088-0.017-0.116 0.005-0.144 1.395-1.69 2.856-3.461 4.38-5.17 0.442-0.586 0.934-1.123 1.433-1.654l-1.433 1.654c1.692-1.898 3.462-3.718 5.308-5.462l-3.875 3.808c1.588-1.692 3.239-3.322 4.951-4.889l-1.076 1.081c5.937-5.607 12.671-10.421 20.219-14.458 20.015-10.704 39.541-14.817 92.627-15.201l8.666-0.030h415.764c59.699 0 80.225 3.964 101.293 15.231 16.659 8.909 29.351 21.601 38.26 38.26 10.704 20.015 14.817 39.541 15.201 92.627l0.030 8.666v20.831l-0.011 30.165-94.951 94.946c-16.977 16.725-25.381 22.971-34.605 26.51v0l-2.666 0.944zM352 650.667c41.237 0 74.667-33.429 74.667-74.667s-33.429-74.667-74.667-74.667c-41.237 0-74.667 33.429-74.667 74.667s33.429 74.667 74.667 74.667z" />
<glyph unicode="&#xe944;" glyph-name="settings-filled" d="M575.552 906.667c29.893 0 56.904-17.828 68.655-45.314v0l35.1-82.099 36.288-20.949 88.911 10.717c28.712 3.463 56.746-9.964 72.085-34.28v0l1.491-2.468 63.487-109.772c14.995-25.928 13.046-58.307-4.952-82.248v0l-53.683-71.4v-41.696l53.684-71.411c17.397-23.143 19.798-54.171 6.394-79.633v0l-1.443-2.614-63.487-109.772c-14.962-25.869-43.907-40.326-73.576-36.748v0l-88.911 10.727-36.288-20.949-35.1-82.11c-11.372-26.599-37.036-44.154-65.772-45.259v0l-2.883-0.055h-127.102c-29.894 0-56.907 17.83-68.657 45.318v0l-35.11 82.106-36.288 20.949-88.901-10.727c-28.712-3.463-56.746 9.964-72.085 34.28v0l-1.491 2.468-63.487 109.772c-14.995 25.927-13.046 58.306 4.951 82.247v0l53.674 71.411v41.696l-53.673 71.4c-17.398 23.143-19.799 54.171-6.395 79.634v0l1.443 2.614 63.487 109.772c14.962 25.869 43.907 40.326 73.576 36.748v0l88.901-10.717 36.288 20.949 35.11 82.095c11.371 26.601 37.036 44.158 65.773 45.263v0l2.884 0.055zM512 640c-106.039 0-192-85.961-192-192s85.961-192 192-192c106.039 0 192 85.961 192 192s-85.961 192-192 192zM512 576c70.692 0 128-57.308 128-128s-57.308-128-128-128c-70.692 0-128 57.308-128 128s57.308 128 128 128z" />
<glyph unicode="&#xe945;" glyph-name="settings" d="M575.552 906.667c29.893 0 56.904-17.828 68.655-45.314v0l35.1-82.099 36.288-20.949 88.911 10.717c28.712 3.463 56.746-9.964 72.085-34.28v0l1.491-2.468 63.487-109.772c14.995-25.928 13.046-58.307-4.952-82.248v0l-53.683-71.4v-41.696l53.684-71.411c17.397-23.143 19.798-54.171 6.394-79.633v0l-1.443-2.614-63.487-109.772c-14.962-25.869-43.907-40.326-73.576-36.748v0l-88.911 10.727-36.288-20.949-35.1-82.11c-11.372-26.599-37.036-44.154-65.772-45.259v0l-2.883-0.055h-127.102c-29.894 0-56.907 17.83-68.657 45.318v0l-35.11 82.106-36.288 20.949-88.901-10.727c-28.712-3.463-56.746 9.964-72.085 34.28v0l-1.491 2.468-63.487 109.772c-14.995 25.927-13.046 58.306 4.951 82.247v0l53.674 71.411v41.696l-53.673 71.4c-17.398 23.143-19.799 54.171-6.395 79.634v0l1.443 2.614 63.487 109.772c14.962 25.869 43.907 40.326 73.576 36.748v0l88.901-10.717 36.288 20.949 35.11 82.095c11.371 26.601 37.036 44.158 65.773 45.263v0l2.884 0.055zM575.552 842.667h-127.102c-4.271 0-8.13-2.547-9.808-6.474v0l-36.488-85.359c-4.534-10.606-12.384-19.457-22.373-25.224v0l-42.459-24.515c-9.996-5.771-21.594-8.144-33.054-6.762v0l-92.437 11.149c-4.238 0.511-8.373-1.554-10.511-5.25v0l-63.487-109.772c-2.142-3.704-1.864-8.33 0.707-11.75v0l55.82-74.254c6.946-9.24 10.702-20.488 10.702-32.048v0-48.813c0-11.56-3.756-22.806-10.702-32.046v0l-55.821-74.258c-2.571-3.42-2.849-8.046-0.707-11.75v0l63.487-109.772c2.137-3.696 6.272-5.761 10.511-5.25v0l92.437 11.149c11.459 1.382 23.058-0.991 33.054-6.762v0l42.459-24.515c9.989-5.768 17.839-14.618 22.373-25.224v0l36.488-85.359c1.679-3.927 5.538-6.474 9.808-6.474v0h127.102c4.27 0 8.129 2.547 9.808 6.473v0l36.497 85.367c4.534 10.605 12.383 19.454 22.371 25.221v0l42.45 24.511c9.996 5.772 21.595 8.145 33.055 6.763v0l92.437-11.149c4.238-0.511 8.373 1.554 10.511 5.25v0l63.487 109.772c2.142 3.704 1.864 8.329-0.707 11.75v0l-55.821 74.258c-6.946 9.24-10.702 20.487-10.702 32.046v0 48.813c0 11.56 3.756 22.807 10.702 32.048v0l55.82 74.254c2.571 3.42 2.85 8.046 0.707 11.75v0l-63.487 109.772c-2.137 3.696-6.272 5.761-10.511 5.25v0l-92.437-11.149c-11.46-1.382-23.059 0.991-33.055 6.763v0l-42.45 24.511c-9.988 5.767-17.837 14.616-22.371 25.221v0l-36.497 85.367c-1.679 3.927-5.538 6.473-9.808 6.473v0zM512 640c106.039 0 192-85.961 192-192s-85.961-192-192-192c-106.039 0-192 85.961-192 192s85.961 192 192 192zM512 576c-70.692 0-128-57.308-128-128s57.308-128 128-128c70.692 0 128 57.308 128 128s-57.308 128-128 128z" />
<glyph unicode="&#xe946;" glyph-name="sift" d="M209.782 864l-6.771-0.207c-84.677-5.212-127.702-107.67-70.010-172.713l270.242-304.862 0.028-251.039c0-9.436 4.164-18.39 11.38-24.471l103.151-86.92 4.268-3.284c36.194-25.299 87.152 0.592 87.152 46.129l-0.026 307.595 281.707 316.736c59.344 66.735 12.51 173.035-76.682 173.035h-604.438zM209.782 800h604.438c33.688 0 51.681-40.838 28.857-66.505l-289.768-325.836-2.842-3.709c-3.404-5.188-5.246-11.285-5.246-17.557l-0.026-301.999-77.952 65.664 0.028 248.298c0 7.823-2.865 15.374-8.055 21.228l-278.33 313.958c-22.769 25.67-4.76 66.458 28.896 66.458z" />
</font>
</defs>
</svg>
